<?xml version="1.0" encoding="UTF-8" standalone="no"?>
<svg width="54" height="64" viewBox="0 0 54 64" version="1.1" xmlns="http://www.w3.org/2000/svg">
 <g id="Page-1" fill="none" fill-rule="evenodd">
  <g id="Artboard-3" transform="translate(-321.000000, -552.000000)">
   <g id="Alien" transform="translate(321.000000, 552.000000)">
    <path d="M27.0028,0 C12.1138,0 -0.0002,11.932 -0.0002,26.6 C-0.0002,40.581 16.9078,64 27.0028,64 C37.0958,64 53.9998,40.581 53.9998,26.6 C53.9998,11.932 41.8888,0 27.0028,0 M27.0028,1 C41.3378,1 52.9998,12.484 52.9998,26.6 C52.9998,39.867 36.4788,63 27.0028,63 C17.5248,63 0.9998,39.867 0.9998,26.6 C0.9998,12.484 12.6648,1 27.0028,1" id="Fill-94" fill="#1d7ed0"/>
    <path d="M34.8889,41 C31.9689,41 29.6079,40.253 29.5079,40.221 C29.1819,40.116 28.9709,39.796 29.0029,39.452 C29.0309,39.147 29.7559,31.957 34.5649,28.752 C36.3089,27.59 38.5139,27 41.1189,27 C44.0359,27 46.3939,27.746 46.4929,27.778 C46.8189,27.883 47.0279,28.203 46.9969,28.547 C46.9689,28.851 46.2469,36.044 41.4369,39.248 C39.6979,40.41 37.4949,41 34.8889,41" id="Fill-95" fill="#1d7ed0"/>
    <path d="M12.5627,39.2477 C7.7527,36.0437 7.0307,28.8517 7.0027,28.5467 C6.9717,28.2027 7.1817,27.8827 7.5077,27.7777 C7.6067,27.7467 9.9647,26.9997 12.8807,26.9997 C15.4857,26.9997 17.6917,27.5897 19.4347,28.7527 C24.2437,31.9577 24.9687,39.1467 24.9967,39.4527 C25.0287,39.7967 24.8187,40.1167 24.4927,40.2217 C24.3927,40.2527 22.0307,40.9997 19.1107,40.9997 C16.5047,40.9997 14.3027,40.4107 12.5627,39.2477" id="Fill-96" fill="#1d7ed0"/>
    <path d="M29.5,54 L24.5,54 C24.225,54 24,53.775 24,53.5 C24,53.225 24.225,53 24.5,53 L29.5,53 C29.775,53 30,53.225 30,53.5 C30,53.775 29.775,54 29.5,54" id="Fill-115" fill="#f2b430"/>
   </g>
  </g>
 </g>
</svg>
