<?xml version="1.0" encoding="UTF-8" standalone="no"?>
<svg width="44" height="64" viewBox="0 0 44 64" version="1.1" xmlns="http://www.w3.org/2000/svg">
 <g id="Page-1" fill="none" fill-rule="evenodd">
  <g id="Artboard-3" transform="translate(-222.000000, -240.000000)">
   <g id="Capsule-1" transform="translate(222.000000, 240.000000)">
    <path d="M42.7033,8.5528 L43.8583,8.8138 C44.0473,8.8658 44.0473,9.1348 43.8583,9.1868 L42.7033,9.4478 C42.6063,9.4708 42.5303,9.5388 42.5033,9.6248 L42.1863,10.8578 C42.1343,11.0478 41.8653,11.0478 41.8133,10.8578 L41.4963,9.6248 C41.4693,9.5388 41.3943,9.4708 41.2963,9.4478 L40.1423,9.1868 C39.9523,9.1348 39.9523,8.8658 40.1423,8.8138 L41.2963,8.5528 C41.3933,8.5288 41.4693,8.4618 41.4963,8.3758 L41.8133,7.1418 C41.8653,6.9528 42.1343,6.9528 42.1863,7.1418 L42.5033,8.3758 C42.5303,8.4618 42.6063,8.5288 42.7033,8.5528" id="Fill-37" fill="#f2b430"/>
    <path d="M2.7033,31.5528 L3.8583,31.8138 C4.0473,31.8658 4.0473,32.1348 3.8583,32.1868 L2.7033,32.4478 C2.6063,32.4708 2.5303,32.5388 2.5033,32.6248 L2.1863,33.8578 C2.1343,34.0478 1.8653,34.0478 1.8133,33.8578 L1.4963,32.6248 C1.4693,32.5388 1.3943,32.4708 1.2963,32.4478 L0.1423,32.1868 C-0.0477,32.1348 -0.0477,31.8658 0.1423,31.8138 L1.2963,31.5528 C1.3933,31.5288 1.4693,31.4618 1.4963,31.3758 L1.8133,30.1418 C1.8653,29.9528 2.1343,29.9528 2.1863,30.1418 L2.5033,31.3758 C2.5303,31.4618 2.6063,31.5288 2.7033,31.5528" id="Fill-38" fill="#f2b430"/>
    <path d="M28,54 L20,54 L15.817,60.971 C15.018,62.304 15.978,64 17.532,64 L30.468,64 C32.022,64 32.982,62.304 32.183,60.971 L28,54 Z M27.434,55 L31.325,61.486 C31.596,61.937 31.424,62.34 31.338,62.493 C31.251,62.645 30.994,63 30.468,63 L17.532,63 C17.006,63 16.749,62.645 16.662,62.493 C16.576,62.34 16.404,61.937 16.675,61.486 L20.566,55 L27.434,55 L27.434,55 Z" id="Fill-410" fill="#1d7ed0"/>
    <path d="M24,0 C23.447,0 22.893,0.228 22.495,0.683 L10.493,14.435 C10.175,14.799 10,15.266 10,15.75 L10,55 L38,55 L38,15.75 C38,15.266 37.825,14.799 37.507,14.435 L25.505,0.683 C25.107,0.228 24.553,0 24,0 M24,1 C24.293,1 24.56,1.121 24.752,1.341 L36.753,15.092 C36.912,15.275 37,15.508 37,15.75 L37,54 L11,54 L11,15.75 C11,15.508 11.088,15.275 11.247,15.092 L23.247,1.341 C23.44,1.121 23.707,1 24,1" id="Fill-411" fill="#1d7ed0"/>
    <path d="M11,16 L37,16 L37,15 L11,15 L11,16 Z" id="Fill-412" fill="#1d7ed0"/>
    <path d="M11,26 L37,26 L37,25 L11,25 L11,26 Z" id="Fill-413" fill="#1d7ed0"/>
    <path d="M11,52 L37,52 L37,51 L11,51 L11,52 Z" id="Fill-414" fill="#f2b430"/>
    <path d="M30,36 L38,36 L38,35 L30,35 L30,36 Z" id="Fill-415" fill="#f2b430"/>
    <path d="M30,42 L38,42 L38,41 L30,41 L30,42 Z" id="Fill-416" fill="#f2b430"/>
    <path d="M10,45 L14,45 L14,30 L10,30 L10,45 Z M11,44 L13,44 L13,31 L11,31 L11,44 Z" id="Fill-417" fill="#1d7ed0"/>
    <path d="M38,29 L32,29 C30.895,29 30,29.895 30,31 L30,46 C30,47.105 30.895,48 32,48 L38,48 L38,29 Z M37,30 L37,47 L32,47 C31.449,47 31,46.551 31,46 L31,31 C31,30.449 31.449,30 32,30 L37,30 L37,30 Z" id="Fill-418" fill="#1d7ed0"/>
    <path d="M18,25 L19,25 L19,16 L18,16 L18,25 Z" id="Fill-419" fill="#f2b430"/>
    <path d="M31,19 C31,19.552 30.552,20 30,20 C29.448,20 29,19.552 29,19 C29,18.448 29.448,18 30,18 C30.552,18 31,18.448 31,19" id="Fill-420" fill="#f2b430"/>
    <path d="M35,19 C35,19.552 34.552,20 34,20 C33.448,20 33,19.552 33,19 C33,18.448 33.448,18 34,18 C34.552,18 35,18.448 35,19" id="Fill-421" fill="#f2b430"/>
   </g>
  </g>
 </g>
</svg>
