<?xml version="1.0" encoding="UTF-8" standalone="no"?>
<svg width="64" height="60" viewBox="0 0 64 60" version="1.1" xmlns="http://www.w3.org/2000/svg">
 <g id="Page-1" fill="none" fill-rule="evenodd">
  <g id="Artboard-3" transform="translate(-420.000000, -658.000000)">
   <g id="Capsule-2" transform="translate(420.000000, 658.000000)">
    <path d="M32,18 C22.986,18 17.985,15.552 17.776,15.447 L18.223,14.553 C18.272,14.577 23.243,17 32,17 C40.659,17 45.73,14.575 45.781,14.551 L46.219,15.449 C46.006,15.554 40.888,18 32,18" id="Fill-308" fill="#f2b430"/>
    <path d="M13.7695,21.2791 L15.5015,22.2791 C15.7305,22.4111 15.8955,22.6271 15.9655,22.8871 C16.0345,23.1461 15.9995,23.4161 15.8675,23.6451 L7.8675,37.5011 C7.6905,37.8091 7.3565,38.0001 6.9955,38.0001 C6.8205,38.0001 6.6535,37.9551 6.5015,37.8671 L4.7695,36.8671 L4.2695,37.7331 L6.0015,38.7331 C6.3145,38.9141 6.6575,39.0001 6.9955,39.0001 C7.6885,39.0001 8.3645,38.6411 8.7335,38.0011 L16.7335,24.1451 C17.2835,23.1921 16.9545,21.9631 16.0015,21.4131 L14.2695,20.4131 L13.7695,21.2791 Z" id="Fill-313" fill="#f2b430"/>
    <path d="M49.7305,20.4131 L47.9985,21.4131 C47.0455,21.9631 46.7165,23.1921 47.2665,24.1451 L55.2665,38.0011 C55.6355,38.6411 56.3115,39.0001 57.0045,39.0001 C57.3425,39.0001 57.6855,38.9141 57.9985,38.7331 L59.7305,37.7331 L59.2305,36.8671 L57.4985,37.8671 C57.3485,37.9541 57.1775,38.0001 57.0045,38.0001 C56.6435,38.0001 56.3095,37.8091 56.1325,37.5011 L48.1325,23.6451 C48.0005,23.4161 47.9655,23.1461 48.0345,22.8871 C48.1045,22.6271 48.2695,22.4111 48.4985,22.2791 L50.2305,21.2791 L49.7305,20.4131 Z" id="Fill-314" fill="#f2b430"/>
    <path d="M63,46 L63,47.836 C63,48.698 62.413,49.435 61.571,49.63 C61.098,49.74 60.572,49.876 59.978,50.029 C55.949,51.067 48.451,53 32,53 C15.432,53 8.015,51.073 4.03,50.037 C3.433,49.882 2.904,49.745 2.426,49.633 C1.586,49.438 1,48.7 1,47.84 L1,46 L0,45 L0,47.84 C0,49.164 0.91,50.307 2.199,50.607 C5.963,51.484 12.917,54 32,54 C50.917,54 58.021,51.481 61.798,50.605 C63.088,50.305 64,49.161 64,47.836 L64,45" id="Fill-315" fill="#f2b430"/>
    <path d="M43.4256,11 L62.8606,44.583 C63.1856,45.14 62.9146,45.854 62.2986,46.042 C58.5516,47.18 48.7176,49 31.9996,49 C15.2586,49 5.4416,47.093 1.7046,45.956 C1.0886,45.768 0.8176,45.054 1.1426,44.497 L20.5746,11 L19.9996,10 L0.2746,44 C-0.3744,45.113 0.1756,46.541 1.4076,46.918 C5.2416,48.093 15.1146,50 31.9996,50 C48.7976,50 58.7256,48.174 62.5866,47 C63.8226,46.624 64.3756,45.195 63.7246,44.08 L43.9996,10" id="Fill-305" fill="#1d7ed0"/>
    <path d="M60.4437,50.4063 L62.8607,54.5833 C63.1857,55.1393 62.9147,55.8543 62.2987,56.0413 C58.5517,57.1803 48.7177,59.0003 31.9997,59.0003 C15.2587,59.0003 5.4407,57.0933 1.7047,55.9553 C1.0887,55.7683 0.8177,55.0533 1.1427,54.4973 L3.5017,50.4303 L2.5957,50.0003 L0.2747,54.0003 C-0.3743,55.1133 0.1757,56.5403 1.4077,56.9183 C5.2417,58.0933 15.1147,60.0003 31.9997,60.0003 C48.7977,60.0003 58.7257,58.1743 62.5867,57.0003 C63.8217,56.6243 64.3757,55.1953 63.7247,54.0803 L61.4627,50.1703 L60.4437,50.4063 Z" id="Fill-306" fill="#1d7ed0"/>
    <path d="M32,0 L32,0 C25.766,0 20,3.891 20,10.004 L20,11 C20,11 23.239,13 32,13 C40.727,13 44,11 44,11 L44,10 C44,3.95 38.6,0 32,0 M32,1 C38.374,1 43,4.785 43,10 L43,10.373 C41.83,10.871 38.46,12 32,12 C25.511,12 22.156,10.87 21,10.376 L21,10.004 C21,6.745 22.783,4.667 24.278,3.497 C26.308,1.91 29.122,1 32,1" id="Fill-307" fill="#1d7ed0"/>
    <path d="M38,29 C38.551,29 39,29.449 39,30 L39,49 L40,49 L40,30 C40,28.895 39.105,28 38,28 L26,28 C24.895,28 24,28.895 24,30 L24,49 L25,49 L25,30 C25,29.449 25.449,29 26,29 L38,29" id="Fill-310" fill="#1d7ed0"/>
    <path d="M32,31 C29.239,31 27,33.239 27,36 C27,38.761 29.239,41 32,41 C34.761,41 37,38.761 37,36 C37,33.239 34.761,31 32,31 M32,32 C34.206,32 36,33.794 36,36 C36,38.206 34.206,40 32,40 C29.794,40 28,38.206 28,36 C28,33.794 29.794,32 32,32" id="Fill-311" fill="#1d7ed0"/>
    <path d="M34.5,36 C34.224,36 34,35.776 34,35.5 C34,34.673 33.327,34 32.5,34 C32.224,34 32,33.776 32,33.5 C32,33.224 32.224,33 32.5,33 C33.878,33 35,34.121 35,35.5 C35,35.776 34.776,36 34.5,36" id="Fill-312" fill="#f2b430"/>
   </g>
  </g>
 </g>
</svg>
