<?xml version="1.0" encoding="UTF-8" standalone="no"?>
<svg width="64" height="48" viewBox="0 0 64 48" version="1.1" xmlns="http://www.w3.org/2000/svg">
 <g id="Page-1" fill="none" fill-rule="evenodd">
  <g id="Artboard-3" transform="translate(-524.000000, -248.000000)">
   <g id="Eclipse" transform="translate(524.000000, 248.000000)">
    <path d="M5,25 L1,25 C0.45,25 0,24.55 0,24 C0,23.45 0.45,23 1,23 L5,23 C5.55,23 6,23.45 6,24 C6,24.55 5.55,25 5,25" id="Fill-198" fill="#f2b430"/>
    <path d="M10.7083,38.7059 L7.8803,41.5339 C7.4913,41.9229 6.8543,41.9229 6.4653,41.5339 C6.0763,41.1459 6.0763,40.5089 6.4653,40.1199 L9.2943,37.2919 C9.6833,36.9029 10.3193,36.9029 10.7083,37.2919 C11.0973,37.6809 11.0973,38.3169 10.7083,38.7059" id="Fill-199" fill="#f2b430"/>
    <path d="M24,48 L24,48 C23.45,48 23,47.55 23,47 L23,43 C23,42.45 23.45,42 24,42 C24.55,42 25,42.45 25,43 L25,47 C25,47.55 24.55,48 24,48" id="Fill-200" fill="#f2b430"/>
    <path d="M24,6 L24,6 C23.45,6 23,5.55 23,5 L23,1 C23,0.45 23.45,0 24,0 C24.55,0 25,0.45 25,1 L25,5 C25,5.55 24.55,6 24,6" id="Fill-201" fill="#f2b430"/>
    <path d="M9.2941,10.7083 L6.4661,7.8803 C6.0771,7.4913 6.0771,6.8543 6.4661,6.4653 C6.8541,6.0763 7.4911,6.0763 7.8801,6.4653 L10.7081,9.2943 C11.0971,9.6833 11.0971,10.3193 10.7081,10.7083 C10.3191,11.0973 9.6831,11.0973 9.2941,10.7083" id="Fill-202" fill="#f2b430"/>
    <path d="M54,18 C51.239,18 49,20.239 49,23 C49,25.761 51.239,28 54,28 C56.761,28 59,25.761 59,23 C59,20.239 56.761,18 54,18 M54,19 C56.206,19 58,20.794 58,23 C58,25.206 56.206,27 54,27 C51.794,27 50,25.206 50,23 C50,20.794 51.794,19 54,19" id="Fill-203" fill="#f2b430"/>
    <path d="M57,29 C55.895,29 55,29.895 55,31 C55,32.105 55.895,33 57,33 C58.105,33 59,32.105 59,31 C59,29.895 58.105,29 57,29 M57,30 C57.551,30 58,30.449 58,31 C58,31.551 57.551,32 57,32 C56.449,32 56,31.551 56,31 C56,30.449 56.449,30 57,30" id="Fill-204" fill="#f2b430"/>
    <path d="M42,21.5 C40.07,21.5 38.5,19.93 38.5,18 C38.5,16.07 40.07,14.5 42,14.5 C42.276,14.5 42.5,14.724 42.5,15 C42.5,15.276 42.276,15.5 42,15.5 C40.621,15.5 39.5,16.622 39.5,18 C39.5,19.378 40.621,20.5 42,20.5 C42.276,20.5 42.5,20.724 42.5,21 C42.5,21.276 42.276,21.5 42,21.5" id="Fill-205" fill="#f2b430"/>
    <path d="M46,30 C45.724,30 45.5,29.776 45.5,29.5 C45.5,27.294 43.706,25.5 41.5,25.5 C39.294,25.5 37.5,27.294 37.5,29.5 C37.5,29.776 37.276,30 37,30 C36.724,30 36.5,29.776 36.5,29.5 C36.5,26.743 38.743,24.5 41.5,24.5 C44.257,24.5 46.5,26.743 46.5,29.5 C46.5,29.776 46.276,30 46,30" id="Fill-206" fill="#f2b430"/>
    <path d="M51.2676,15.7676 C51.1396,15.7676 51.0116,15.7186 50.9136,15.6216 C50.7186,15.4256 50.7186,15.1096 50.9136,14.9136 C51.2916,14.5366 51.4996,14.0346 51.4996,13.4996 C51.4996,12.9656 51.2916,12.4636 50.9136,12.0856 C50.1346,11.3066 48.8656,11.3066 48.0856,12.0856 C47.8906,12.2816 47.5746,12.2816 47.3786,12.0856 C47.1836,11.8906 47.1836,11.5746 47.3786,11.3786 C48.5486,10.2086 50.4516,10.2086 51.6216,11.3786 C52.1876,11.9456 52.4996,12.6986 52.4996,13.4996 C52.4996,14.3016 52.1876,15.0546 51.6216,15.6216 C51.5236,15.7186 51.3956,15.7676 51.2676,15.7676" id="Fill-207" fill="#f2b430"/>
    <path d="M37,34 C38.103,34 39,34.897 39,36 C39,36.222 38.964,36.435 38.897,36.635 L39.756,37.186 C39.913,36.822 40,36.421 40,36 C40,34.343 38.657,33 37,33 C36.528,33 36.082,33.109 35.685,33.303 L36.176,34.178 C36.428,34.064 36.707,34 37,34" id="Fill-208" fill="#f2b430"/>
    <path d="M50,35.5 C49.724,35.5 49.5,35.276 49.5,35 C49.5,34.724 49.724,34.5 50,34.5 C50.827,34.5 51.5,33.827 51.5,33 C51.5,32.173 50.827,31.5 50,31.5 C49.724,31.5 49.5,31.276 49.5,31 C49.5,30.724 49.724,30.5 50,30.5 C51.379,30.5 52.5,31.622 52.5,33 C52.5,34.378 51.379,35.5 50,35.5" id="Fill-209" fill="#f2b430"/>
    <path d="M33.9316,35.2107 C31.2826,37.5597 27.8106,38.9997 23.9996,38.9997 C15.7286,38.9997 8.9996,32.2707 8.9996,23.9997 C8.9996,15.7287 15.7286,8.9997 23.9996,8.9997 C27.8106,8.9997 31.2826,10.4397 33.9316,12.7897 C34.1416,12.5267 34.3636,12.2757 34.5866,12.0257 C31.7646,9.5287 28.0646,7.9997 23.9996,7.9997 C15.1636,7.9997 7.9996,15.1637 7.9996,23.9997 C7.9996,32.8367 15.1636,39.9997 23.9996,39.9997 C28.0646,39.9997 31.7646,38.4717 34.5866,35.9737 C34.3636,35.7237 34.1416,35.4737 33.9316,35.2107" id="Fill-210" fill="#1d7ed0"/>
    <path d="M48,8 C39.163,8 32,15.163 32,24 C32,32.837 39.163,40 48,40 C56.837,40 64,32.837 64,24 C64,15.163 56.837,8 48,8 L48,8 Z M48,9 C56.271,9 63,15.729 63,24 C63,32.271 56.271,39 48,39 C39.729,39 33,32.271 33,24 C33,15.729 39.729,9 48,9 L48,9 Z" id="Fill-1" fill="#1d7ed0"/>
   </g>
  </g>
 </g>
</svg>
