<?xml version="1.0" encoding="UTF-8" standalone="no"?>
<svg width="64" height="64" viewBox="0 0 64 64" version="1.1" xmlns="http://www.w3.org/2000/svg">
 <g id="Page-1" fill="none" fill-rule="evenodd">
  <g id="Artboard-3" transform="translate(-108.000000, -344.000000)">
   <g id="Helmet" transform="translate(108.000000, 344.000000)">
    <path d="M11.5,37.5 C11.224,37.5 11,37.276 11,37 L11,32 C11,27.38 14.871,23.477 20.414,22.507 C20.683,22.462 20.945,22.642 20.993,22.914 C21.04,23.186 20.858,23.445 20.586,23.493 C15.531,24.376 12,27.875 12,32 L12,37 C12,37.276 11.776,37.5 11.5,37.5" id="Fill-106" fill="#f2b430"/>
    <path d="M60,34 L60,34 L60,42 L60,42 C62.209,42 64,40.209 64,38 C64,35.791 62.209,34 60,34 M61,35.171 C62.164,35.584 63,36.696 63,38 C63,39.304 62.164,40.416 61,40.829 L61,35.171" id="Fill-110" fill="#f2b430"/>
    <path d="M4,34 C1.791,34 0,35.791 0,38 C0,40.209 1.791,42 4,42 L4,34 Z M3,35.171 L3,40.829 C1.836,40.416 1,39.304 1,38 C1,36.696 1.836,35.584 3,35.171 L3,35.171 Z" id="Fill-112" fill="#f2b430"/>
    <path d="M54,51.5 L54,61.211 C51.82,61.692 44.716,63 32,63 C19.155,63 12.148,61.696 10,61.215 L10,51.5 L9,51 L9,62 C9,62 15.946,64 32,64 C47.867,64 55,62 55,62 L55,51" id="Fill-129" fill="#1d7ed0"/>
    <path d="M19,19.5 C18.724,19.5 18.5,19.276 18.5,19 C18.5,16.382 16.29,11.758 12.826,10.469 C12.567,10.372 12.435,10.084 12.531,9.826 C12.628,9.567 12.917,9.436 13.174,9.531 C17.094,10.99 19.5,16.029 19.5,19 C19.5,19.276 19.276,19.5 19,19.5" id="Fill-107" fill="#f2b430"/>
    <path d="M45,19.5 C44.724,19.5 44.5,19.276 44.5,19 C44.5,16.029 46.906,10.99 50.826,9.531 C51.085,9.435 51.372,9.567 51.469,9.826 C51.565,10.084 51.433,10.372 51.174,10.469 C47.71,11.758 45.5,16.382 45.5,19 C45.5,19.276 45.276,19.5 45,19.5" id="Fill-108" fill="#f2b430"/>
    <path d="M32.0001,0 L32.0001,0 C16.6001,0 7.0001,12.6 7.0001,28 L7.0001,50 C7.0001,50 11.0001,56 32.0001,56 C52.8751,56 57.0001,50 57.0001,50 L57.0001,28 C57.0001,12.6 47.4001,0 32.0001,0 M32.0001,1 C39.0681,1 45.1241,3.723 49.5141,8.874 C53.6961,13.782 56.0001,20.574 56.0001,28 L56.0001,49.625 C55.0031,50.631 49.6501,55 32.0001,55 C14.1921,55 8.9431,50.607 8.0001,49.634 L8.0001,28 C8.0001,20.574 10.3031,13.782 14.4861,8.874 C18.8761,3.723 24.9321,1 32.0001,1" id="Fill-104" fill="#1d7ed0"/>
    <path d="M32,17 C10.083,17 7,27 7,27 L7,44 C7,44 15.056,48 32,48 C48.676,48 57,44 57,44 L57,27 C57,27 53.75,17 32,17 M32,18 C51.323,18 55.524,26.1 56,27.189 L56,43.339 C53.877,44.19 45.819,47 32,47 C17.974,47 10.074,44.197 8,43.346 L8,27.183 C8.458,26.095 12.529,18 32,18" id="Fill-105" fill="#1d7ed0"/>
    <path d="M59,29 L56,29 L56,47 L59,47 C60.105,47 61,46.105 61,45 L61,31 C61,29.895 60.105,29 59,29 M59,30 C59.551,30 60,30.449 60,31 L60,45 C60,45.551 59.551,46 59,46 L57,46 L57,30 L59,30" id="Fill-109" fill="#1d7ed0"/>
    <path d="M8,29 L5,29 C3.895,29 3,29.895 3,31 L3,45 C3,46.105 3.895,47 5,47 L8,47 L8,29 Z M7,30 L7,46 L5,46 C4.449,46 4,45.551 4,45 L4,31 C4,30.449 4.449,30 5,30 L7,30 L7,30 Z" id="Fill-111" fill="#1d7ed0"/>
    <path d="M58,29 L59,29 L59,14 L58,14 L58,29 Z" id="Fill-113" fill="#f2b430"/>
    <path d="M60,13.5 C60,14.328 59.328,15 58.5,15 C57.672,15 57,14.328 57,13.5 C57,12.672 57.672,12 58.5,12 C59.328,12 60,12.672 60,13.5" id="Fill-114" fill="#f2b430"/>
   </g>
  </g>
 </g>
</svg>
