<?xml version="1.0" encoding="UTF-8" standalone="no"?>
<svg width="64" height="46" viewBox="0 0 64 46" version="1.1" xmlns="http://www.w3.org/2000/svg">
 <g id="Page-1" fill="none" fill-rule="evenodd">
  <g id="Artboard-3" transform="translate(-316.000000, -249.000000)">
   <g id="Moon-Walker-1" transform="translate(316.000000, 249.000000)">
    <path d="M14,39 C14,39.552 13.552,40 13,40 C12.448,40 12,39.552 12,39 C12,38.448 12.448,38 13,38 C13.552,38 14,38.448 14,39" id="Fill-395" fill="#f2b430"/>
    <path d="M33,39 C33,39.552 32.552,40 32,40 C31.448,40 31,39.552 31,39 C31,38.448 31.448,38 32,38 C32.552,38 33,38.448 33,39" id="Fill-396" fill="#f2b430"/>
    <path d="M52,39 C52,39.552 51.552,40 51,40 C50.448,40 50,39.552 50,39 C50,38.448 50.448,38 51,38 C51.552,38 52,38.448 52,39" id="Fill-397" fill="#f2b430"/>
    <path d="M62,23 C62.551,23 63,23.449 63,24 L63,35 C63,36.657 61.657,38 60,38 L57.438,38 L57.438,39 L60,39 C62.209,39 64,37.209 64,35 L64,24 C64,22.895 63.105,22 62,22 L2,22 C0.895,22 0,22.895 0,24 L0,35 C0,37.209 1.791,39 4,39 L6.46,39 L6.46,38 L4,38 C2.343,38 1,36.657 1,35 L1,24 C1,23.448 1.448,23 2,23 L62,23 L62,23 Z M44.429,38 L38.352,38 L38.515,39 L44.388,39 L44.429,38 Z M25.465,38 L19.47,38 L19.429,39 L25.383,39 L25.465,38 Z" id="Fill-399" fill="#1d7ed0"/>
    <path d="M16,19 L10,19 C9.448,19 9,19.448 9,20 L9,22 C9,22.552 9.448,23 10,23 L16,23 C16.552,23 17,22.552 17,22 L17,20 C17,19.448 16.552,19 16,19 L16,19 Z M10,22 L16,22 L16,20 L10,20 L10,22 Z" id="Fill-400" fill="#1d7ed0"/>
    <path d="M12,26 C12,26.552 11.552,27 11,27 C10.448,27 10,26.552 10,26 C10,25.448 10.448,25 11,25 C11.552,25 12,25.448 12,26" id="Fill-401" fill="#f2b430"/>
    <path d="M16,26 C16,26.552 15.552,27 15,27 C14.448,27 14,26.552 14,26 C14,25.448 14.448,25 15,25 C15.552,25 16,25.448 16,26" id="Fill-402" fill="#f2b430"/>
    <path d="M25,27 L19,27 C18.45,27 18,26.55 18,26 C18,25.45 18.45,25 19,25 L25,25 C25.55,25 26,25.45 26,26 C26,26.55 25.55,27 25,27" id="Fill-403" fill="#f2b430"/>
    <path d="M42.5679,16.748 L49.5679,4.748 L50.1739,5.694 L43.8059,16.611 L42.5679,16.748 Z" id="Fill-404" fill="#f2b430"/>
    <path d="M46.0679,16.748 L52.0869,6.43 L53.2689,6.389 L47.2429,16.72 L46.0679,16.748 Z" id="Fill-405" fill="#f2b430"/>
    <path d="M31,3 L50,3 L50,2 L31,2 L31,3 Z" id="Fill-407" fill="#f2b430"/>
    <path d="M31,6 L50,6 L50,5 L31,5 L31,6 Z" id="Fill-408" fill="#f2b430"/>
    <path d="M30,1 L30,7 L21,7 C20.449,7 20,6.551 20,6 L20,5 L19,5 L19,6 C19,7.105 19.895,8 21,8 L31,8 L31,0 L21,0 C19.895,0 19,0.895 19,2 L19,3 L20,3 L20,2 C20,1.449 20.449,1 21,1 L30,1" id="Fill-409" fill="#1d7ed0"/>
    <path d="M52,1 C50.343,1 49,2.343 49,4 C49,5.657 50.343,7 52,7 C53.657,7 55,5.657 55,4 C55,2.343 53.657,1 52,1 M52,2 C53.103,2 54,2.897 54,4 C54,5.103 53.103,6 52,6 C50.897,6 50,5.103 50,4 C50,2.897 50.897,2 52,2" id="Fill-406" fill="#1d7ed0"/>
    <path d="M45.5408,16 C41.0638,16 37.2748,18.943 35.9998,23 L55.0818,23 C53.8068,18.943 50.0178,16 45.5408,16 M45.5408,17 C49.0188,17 52.1088,18.961 53.6068,22 L37.4748,22 C38.9728,18.961 42.0628,17 45.5408,17" id="Fill-398" fill="#1d7ed0"/>
    <path d="M13,32 C9.134,32 6,35.134 6,39 C6,42.866 9.134,46 13,46 C16.866,46 20,42.866 20,39 C20,35.134 16.866,32 13,32 M13,33 C16.308,33 19,35.692 19,39 C19,42.308 16.308,45 13,45 C9.692,45 7,42.308 7,39 C7,35.692 9.692,33 13,33" id="Fill-392" fill="#1d7ed0"/>
    <path d="M51,32 C47.134,32 44,35.134 44,39 C44,42.866 47.134,46 51,46 C54.866,46 58,42.866 58,39 C58,35.134 54.866,32 51,32 M51,33 C54.308,33 57,35.692 57,39 C57,42.308 54.308,45 51,45 C47.692,45 45,42.308 45,39 C45,35.692 47.692,33 51,33" id="Fill-393" fill="#1d7ed0"/>
    <path d="M32,32 C28.134,32 25,35.134 25,39 C25,42.866 28.134,46 32,46 C35.866,46 39,42.866 39,39 C39,35.134 35.866,32 32,32 M32,33 C35.308,33 38,35.692 38,39 C38,42.308 35.308,45 32,45 C28.692,45 26,42.308 26,39 C26,35.692 28.692,33 32,33" id="Fill-394" fill="#1d7ed0"/>
   </g>
  </g>
 </g>
</svg>
