<?xml version="1.0" encoding="UTF-8" standalone="no"?>
<svg width="64" height="64" viewBox="0 0 64 64" version="1.1" xmlns="http://www.w3.org/2000/svg">
 <g id="Page-1" fill="none" fill-rule="evenodd">
  <g id="Artboard-3" transform="translate(-316.000000, -656.000000)">
   <g id="Moon-Lander" transform="translate(316.000000, 656.000000)">
    <path d="M13,49 L51,49 L51,43 L13,43 L13,49 Z M14,48 L50,48 L50,44 L14,44 L14,48 Z" id="Fill-262" fill="#f2b430"/>
    <path d="M10.4475,25.5331 L21.0005,44.0001 L23.0005,44.0001 L23.1365,43.0001 L21.5805,43.0001 L11.5645,25.4721 L10.4475,25.5331 Z" id="Fill-263" fill="#1d7ed0"/>
    <path d="M11.617,20.4359 L21.58,2.9999 L28.591,2.9999 L28.727,1.9999 L21,1.9999 L10.494,20.3859 L11.617,20.4359 Z" id="Fill-264" fill="#1d7ed0"/>
    <path d="M53.5346,20.4355 L42.9996,2.0005 L35.2726,2.0005 L35.4096,3.0005 L42.4196,3.0005 L52.3946,20.4565 L53.5346,20.4355 Z" id="Fill-265" fill="#1d7ed0"/>
    <path d="M52.3987,25.5368 L42.4197,42.9998 L40.8637,42.9998 L40.9997,43.9998 L42.9997,43.9998 L53.5607,25.5188 L52.3987,25.5368 Z" id="Fill-266" fill="#1d7ed0"/>
    <path d="M35.7355,5.3934 L35.8815,6.4644 C43.3885,8.2274 49.0005,14.9634 49.0005,23.0004 C49.0005,29.4144 45.4265,35.0074 40.1685,37.9014 L40.3125,38.9564 C46.0665,35.9524 50.0005,29.9404 50.0005,23.0004 C50.0005,14.3404 43.8835,7.1134 35.7355,5.3934" id="Fill-267" fill="#f2b430"/>
    <path d="M23.8316,37.9015 C18.5736,35.0075 14.9996,29.4145 14.9996,23.0005 C14.9996,14.9635 20.6116,8.2275 28.1186,6.4645 L28.2646,5.3935 C20.1166,7.1135 13.9996,14.3405 13.9996,23.0005 C13.9996,29.9405 17.9336,35.9525 23.6876,38.9565 L23.8316,37.9015 Z" id="Fill-268" fill="#f2b430"/>
    <path d="M35,0 L29,0 L23,44 L41,44 L35,0 Z M34.127,1 L39.854,43 L24.146,43 L29.873,1 L34.127,1 Z" id="Fill-269" fill="#1d7ed0"/>
    <path d="M9,62 L1,62 C0.448,62 0,62.448 0,63 L0,63 C0,63.552 0.448,64 1,64 L9,64 C9.552,64 10,63.552 10,63 L10,63 C10,62.448 9.552,62 9,62" id="Fill-270" fill="#1d7ed0"/>
    <path d="M63,62 L55,62 C54.448,62 54,62.448 54,63 L54,63 C54,63.552 54.448,64 55,64 L63,64 C63.552,64 64,63.552 64,63 L64,63 C64,62.448 63.552,62 63,62" id="Fill-271" fill="#1d7ed0"/>
    <path d="M36,62 L28,62 C27.448,62 27,62.448 27,63 L27,63 C27,63.552 27.448,64 28,64 L36,64 C36.552,64 37,63.552 37,63 L37,63 C37,62.448 36.552,62 36,62" id="Fill-272" fill="#1d7ed0"/>
    <path d="M31,62 L33,62 L33,52 L31,52 L31,62 Z" id="Fill-274" fill="#1d7ed0"/>
    <path d="M58,62 L60,62 L60,52 L58,52 L58,62 Z" id="Fill-275" fill="#1d7ed0"/>
    <path d="M4,62 L6,62 L6,52 L4,52 L4,62 Z" id="Fill-276" fill="#1d7ed0"/>
    <path d="M18,48 L19,48 L19,44 L18,44 L18,48 Z" id="Fill-277" fill="#f2b430"/>
    <path d="M45,48 L46,48 L46,44 L45,44 L45,48 Z" id="Fill-278" fill="#f2b430"/>
    <path d="M30,62 L34,62 L34,61 L30,61 L30,62 Z" id="Fill-279" fill="#1d7ed0"/>
    <path d="M3,62 L7,62 L7,61 L3,61 L3,62 Z" id="Fill-280" fill="#1d7ed0"/>
    <path d="M57,62 L61,62 L61,61 L57,61 L57,62 Z" id="Fill-281" fill="#1d7ed0"/>
    <path d="M14,44 L24,44 L24,42 L14,42 L14,44 Z" id="Fill-282" fill="#1d7ed0"/>
    <path d="M10,3 L22,3 L22,2 L10,2 L10,3 Z" id="Fill-283" fill="#1d7ed0"/>
    <path d="M40,44 L50,44 L50,42 L40,42 L40,44 Z" id="Fill-284" fill="#1d7ed0"/>
    <path d="M5.4141,53.4141 L4.0001,52.0001 L14.0001,42.0001 L15.4141,43.4141 L5.4141,53.4141 Z" id="Fill-285" fill="#1d7ed0"/>
    <path d="M58.5859,53.4141 L59.9999,52.0001 L49.9999,42.0001 L48.5859,43.4141 L58.5859,53.4141 Z" id="Fill-286" fill="#1d7ed0"/>
    <path d="M52,24 L52,24 C51.45,24 51,23.55 51,23 C51,22.45 51.45,22 52,22 C52.55,22 53,22.45 53,23 C53,23.55 52.55,24 52,24" id="Fill-289" fill="#1d7ed0"/>
    <path d="M43,48 L21,48 L23,53 L41,53 L43,48 Z M41.523,49 L40.323,52 L23.677,52 L22.477,49 L41.523,49 Z" id="Fill-273" fill="#f2b430"/>
    <path d="M35,31 L29,31 C27.9,31 27,31.9 27,33 L27,39 C27,40.1 27.9,41 29,41 L35,41 C36.1,41 37,40.1 37,39 L37,33 C37,31.9 36.1,31 35,31 M35,32 C35.551,32 36,32.449 36,33 L36,39 C36,39.551 35.551,40 35,40 L29,40 C28.449,40 28,39.551 28,39 L28,33 C28,32.449 28.449,32 29,32 L35,32" id="Fill-290" fill="#1d7ed0"/>
    <path d="M31,34 C29.895,34 29,34.895 29,36 C29,37.105 29.895,38 31,38 C32.105,38 33,37.105 33,36 C33,34.895 32.105,34 31,34 M31,35 C31.551,35 32,35.449 32,36 C32,36.551 31.551,37 31,37 C30.449,37 30,36.551 30,36 C30,35.449 30.449,35 31,35" id="Fill-291" fill="#1d7ed0"/>
    <path d="M10,2 C7.791,2 6,3.791 6,6 C6,8.209 7.791,10 10,10 C12.209,10 14,8.209 14,6 C14,3.791 12.209,2 10,2 M10,3 C11.654,3 13,4.346 13,6 C13,7.654 11.654,9 10,9 C8.346,9 7,7.654 7,6 C7,4.346 8.346,3 10,3" id="Fill-292" fill="#1d7ed0"/>
    <path d="M11,6 C11,6.552 10.552,7 10,7 C9.448,7 9,6.552 9,6 C9,5.448 9.448,5 10,5 C10.552,5 11,5.448 11,6" id="Fill-293" fill="#f2b430"/>
    <path d="M18.6465,7.3535 L14.1465,2.8535 L14.8535,2.1465 L19.3535,6.6465 L18.6465,7.3535 Z" id="Fill-294" fill="#1d7ed0"/>
    <path d="M56,24 L55,24 C54.45,24 54,23.55 54,23 C54,22.45 54.45,22 55,22 L56,22 C56.55,22 57,22.45 57,23 C57,23.55 56.55,24 56,24" id="Fill-295" fill="#1d7ed0"/>
    <path d="M9,24 L8,24 C7.45,24 7,23.55 7,23 C7,22.45 7.45,22 8,22 L9,22 C9.55,22 10,22.45 10,23 C10,23.55 9.55,24 9,24" id="Fill-296" fill="#1d7ed0"/>
    <path d="M26.5,22 L14,22 L14,21 L27,21 L26.5,22 Z" id="Fill-297" fill="#1d7ed0"/>
    <path d="M14,24 L26,24 L26,23 L14,23 L14,24 Z" id="Fill-298" fill="#1d7ed0"/>
    <path d="M50,22 L37.5,22 L37,21 L50,21 L50,22 Z" id="Fill-299" fill="#1d7ed0"/>
    <path d="M38,24 L50,24 L50,23 L38,23 L38,24 Z" id="Fill-300" fill="#1d7ed0"/>
    <path d="M56.5,11 C56.372,11 56.244,10.951 56.146,10.854 L53.146,7.854 C52.951,7.658 52.951,7.342 53.146,7.146 C53.342,6.951 53.658,6.951 53.854,7.146 L56.854,10.146 C57.049,10.342 57.049,10.658 56.854,10.854 C56.756,10.951 56.628,11 56.5,11" id="Fill-302" fill="#f2b430"/>
    <path d="M58.5,9 C58.372,9 58.244,8.951 58.146,8.854 L55.146,5.854 C54.951,5.658 54.951,5.342 55.146,5.146 C55.342,4.951 55.658,4.951 55.854,5.146 L58.854,8.146 C59.049,8.342 59.049,8.658 58.854,8.854 C58.756,8.951 58.628,9 58.5,9" id="Fill-303" fill="#f2b430"/>
    <path d="M50.293,13 L57.646,5.647 C57.842,5.451 58.158,5.451 58.354,5.647 C58.549,5.842 58.549,6.158 58.354,6.354 L50.707,14 L50.293,13 Z" id="Fill-304" fill="#f2b430"/>
    <path d="M50,9 L50,15 L51,16 L51,8 L45.951,8 L46.451,9 L50,9 Z" id="Fill-301" fill="#1d7ed0"/>
    <path d="M9,26 L15,26 L15,20 L9,20 L9,26 Z M10,25 L14,25 L14,21 L10,21 L10,25 Z" id="Fill-288" fill="#f2b430"/>
    <path d="M49,26 L55,26 L55,20 L49,20 L49,26 Z M50,25 L54,25 L54,21 L50,21 L50,25 Z" id="Fill-309" fill="#f2b430"/>
   </g>
  </g>
 </g>
</svg>
