<?xml version="1.0" encoding="UTF-8" standalone="no"?>
<svg width="64" height="64" viewBox="0 0 64 64" version="1.1" xmlns="http://www.w3.org/2000/svg">
 <g id="Page-1" fill="none" fill-rule="evenodd">
  <g id="Artboard-3" transform="translate(-628.000000, -448.000000)">
   <g id="Moon" transform="translate(628.000000, 448.000000)">
    <path d="M21,25.5 C17.968,25.5 15.5,23.033 15.5,20 C15.5,16.967 17.968,14.5 21,14.5 C21.276,14.5 21.5,14.724 21.5,15 C21.5,15.276 21.276,15.5 21,15.5 C18.519,15.5 16.5,17.519 16.5,20 C16.5,22.481 18.519,24.5 21,24.5 C21.276,24.5 21.5,24.724 21.5,25 C21.5,25.276 21.276,25.5 21,25.5" id="Fill-170" fill="#f2b430"/>
    <path d="M45,19 C39.477,19 35,23.477 35,29 C35,34.523 39.477,39 45,39 C50.523,39 55,34.523 55,29 C55,23.477 50.523,19 45,19 M45,20 C49.963,20 54,24.037 54,29 C54,33.963 49.963,38 45,38 C40.037,38 36,33.963 36,29 C36,24.037 40.037,20 45,20" id="Fill-171" fill="#f2b430"/>
    <path d="M10,51 C12.757,51 15,53.243 15,56 C15,56.794 14.814,57.545 14.484,58.212 L15.34,58.739 C15.762,57.918 16,56.987 16,56 C16,52.686 13.314,50 10,50 C8.82,50 7.719,50.341 6.791,50.929 L7.484,51.68 C8.223,51.248 9.083,51 10,51" id="Fill-172" fill="#f2b430"/>
    <path d="M37.5,52.5 C37.224,52.5 37,52.276 37,52 C37,51.724 37.224,51.5 37.5,51.5 C38.603,51.5 39.5,50.603 39.5,49.5 C39.5,48.397 38.603,47.5 37.5,47.5 C37.224,47.5 37,47.276 37,47 C37,46.724 37.224,46.5 37.5,46.5 C39.154,46.5 40.5,47.846 40.5,49.5 C40.5,51.154 39.154,52.5 37.5,52.5" id="Fill-173" fill="#f2b430"/>
    <path d="M27,43.5 C26.724,43.5 26.5,43.276 26.5,43 C26.5,39.14 23.359,36 19.5,36 C15.641,36 12.5,39.14 12.5,43 C12.5,43.276 12.276,43.5 12,43.5 C11.724,43.5 11.5,43.276 11.5,43 C11.5,38.589 15.089,35 19.5,35 C23.911,35 27.5,38.589 27.5,43 C27.5,43.276 27.276,43.5 27,43.5" id="Fill-174" fill="#f2b430"/>
    <path d="M36.8281,13.5 C36.7001,13.5 36.5721,13.451 36.4741,13.354 C36.2791,13.158 36.2791,12.842 36.4741,12.646 C37.1361,11.985 37.5001,11.106 37.5001,10.172 C37.5001,9.237 37.1361,8.358 36.4741,7.697 C35.1521,6.375 32.8481,6.375 31.5251,7.697 C31.3301,7.892 31.0141,7.892 30.8181,7.697 C30.6231,7.501 30.6231,7.185 30.8181,6.99 C31.6681,6.14 32.7981,5.672 34.0001,5.672 C35.2021,5.672 36.3321,6.14 37.1821,6.99 C38.0321,7.839 38.5001,8.97 38.5001,10.172 C38.5001,11.374 38.0321,12.504 37.1821,13.354 C37.0841,13.451 36.9561,13.5 36.8281,13.5" id="Fill-175" fill="#f2b430"/>
    <path d="M51,43.5 C49.621,43.5 48.5,44.622 48.5,46 C48.5,47.378 49.621,48.5 51,48.5 C52.379,48.5 53.5,47.378 53.5,46 C53.5,44.622 52.379,43.5 51,43.5 M51,49.5 C49.07,49.5 47.5,47.93 47.5,46 C47.5,44.07 49.07,42.5 51,42.5 C52.93,42.5 54.5,44.07 54.5,46 C54.5,47.93 52.93,49.5 51,49.5" id="Fill-176" fill="#f2b430"/>
    <path d="M32,0 C14.327,0 0,14.327 0,32 C0,49.673 14.327,64 32,64 C49.673,64 64,49.673 64,32 C64,14.327 49.673,0 32,0 M32,1 C49.093,1 63,14.907 63,32 C63,49.093 49.093,63 32,63 C14.907,63 1,49.093 1,32 C1,14.907 14.907,1 32,1" id="Fill-169" fill="#1d7ed0"/>
   </g>
  </g>
 </g>
</svg>
