<?xml version="1.0" encoding="UTF-8" standalone="no"?>
<svg width="64" height="52" viewBox="0 0 64 52" version="1.1" xmlns="http://www.w3.org/2000/svg">
 <g id="Page-1" fill="none" fill-rule="evenodd">
  <g id="Artboard-3" transform="translate(-212.000000, -662.000000)">
   <g id="Moon-Walker-2" transform="translate(212.000000, 662.000000)">
    <path d="M63,24 L1,24 L0.5,23 L63.5,23 L63,24 Z" id="Fill-241" fill="#f2b430"/>
    <path d="M12,36 C7.582,36 4,39.582 4,44 C4,48.418 7.582,52 12,52 C16.418,52 20,48.418 20,44 C20,39.582 16.418,36 12,36 M12,37 C15.86,37 19,40.14 19,44 C19,47.86 15.86,51 12,51 C8.14,51 5,47.86 5,44 C5,40.14 8.14,37 12,37" id="Fill-234" fill="#1d7ed0"/>
    <path d="M12,40 C9.791,40 8,41.791 8,44 C8,46.209 9.791,48 12,48 C14.209,48 16,46.209 16,44 C16,41.791 14.209,40 12,40 M12,41 C13.654,41 15,42.346 15,44 C15,45.654 13.654,47 12,47 C10.346,47 9,45.654 9,44 C9,42.346 10.346,41 12,41" id="Fill-235" fill="#f2b430"/>
    <path d="M32,40 C29.791,40 28,41.791 28,44 C28,46.209 29.791,48 32,48 C34.209,48 36,46.209 36,44 C36,41.791 34.209,40 32,40 M32,41 C33.654,41 35,42.346 35,44 C35,45.654 33.654,47 32,47 C30.346,47 29,45.654 29,44 C29,42.346 30.346,41 32,41" id="Fill-236" fill="#f2b430"/>
    <path d="M52,40 C49.791,40 48,41.791 48,44 C48,46.209 49.791,48 52,48 C54.209,48 56,46.209 56,44 C56,41.791 54.209,40 52,40 M52,41 C53.654,41 55,42.346 55,44 C55,45.654 53.654,47 52,47 C50.346,47 49,45.654 49,44 C49,42.346 50.346,41 52,41" id="Fill-237" fill="#f2b430"/>
    <path d="M52,36 C47.582,36 44,39.582 44,44 C44,48.418 47.582,52 52,52 C56.418,52 60,48.418 60,44 C60,39.582 56.418,36 52,36 M52,37 C55.86,37 59,40.14 59,44 C59,47.86 55.86,51 52,51 C48.14,51 45,47.86 45,44 C45,40.14 48.14,37 52,37" id="Fill-238" fill="#1d7ed0"/>
    <path d="M32,36 C27.582,36 24,39.582 24,44 C24,48.418 27.582,52 32,52 C36.418,52 40,48.418 40,44 C40,39.582 36.418,36 32,36 M32,37 C35.86,37 39,40.14 39,44 C39,47.86 35.86,51 32,51 C28.14,51 25,47.86 25,44 C25,40.14 28.14,37 32,37" id="Fill-239" fill="#1d7ed0"/>
    <path d="M42,19 L58,19 L58,15 L42,15 L42,19 Z M43,18 L57,18 L57,16 L43,16 L43,18 Z" id="Fill-242" fill="#1d7ed0"/>
    <path d="M7,19 L12,19 L12,13 L7,13 L7,19 Z M8,18 L11,18 L11,14 L8,14 L8,18 Z" id="Fill-243" fill="#1d7ed0"/>
    <path d="M28,15.5 L29,15.5 L29,9 L28,9 L28,15.5 Z" id="Fill-259" fill="#f2b430"/>
    <path d="M31,15.5 L32,15.5 L32,9 L31,9 L31,15.5 Z" id="Fill-260" fill="#f2b430"/>
    <path d="M33.5,19 C33.5,17.07 31.93,15.5 30,15.5 C28.07,15.5 26.5,17.07 26.5,19 L25.5,19 C25.5,16.519 27.519,14.5 30,14.5 C32.481,14.5 34.5,16.519 34.5,19 L33.5,19 Z" id="Fill-261" fill="#1d7ed0"/>
    <path d="M61.323,19 L62.963,23.1 L60.279,37.156 C60.202,37.645 59.786,38 59.291,38 L56.561,38 L57.554,39 L59.291,39 C60.275,39 61.113,38.284 61.267,37.312 L64,23 L62,18 L3,18 L0,23 L2.733,37.312 C2.887,38.284 3.725,39 4.709,39 L6.372,39 L7.366,38 L4.709,38 C4.214,38 3.798,37.645 3.716,37.124 L1.054,23.187 L3.566,19 L61.323,19 L61.323,19 Z M17.525,39 L26.435,39 L27.364,38 L16.596,38 L17.525,39 Z M37.589,39 L46.465,39 L47.331,38 L36.69,38 L37.589,39 Z" id="Fill-240" fill="#1d7ed0"/>
    <path d="M9,13 L10,13 L10,8 L9,8 L9,13 Z" id="Fill-244" fill="#1d7ed0"/>
    <path d="M47.5,27 L59.5,27 C59.775,27 60,26.775 60,26.5 C60,26.225 59.775,26 59.5,26 L47.5,26 C47.225,26 47,26.225 47,26.5 C47,26.775 47.225,27 47.5,27" id="Fill-245" fill="#f2b430"/>
    <path d="M11,7.5 C11,6.672 10.328,6 9.5,6 C8.672,6 8,6.672 8,7.5 C8,8.328 8.672,9 9.5,9 C10.328,9 11,8.328 11,7.5" id="Fill-246" fill="#1d7ed0"/>
    <path d="M14,8 C13.724,8 13.5,7.776 13.5,7.5 C13.5,5.294 11.706,3.5 9.5,3.5 C7.294,3.5 5.5,5.294 5.5,7.5 C5.5,7.776 5.276,8 5,8 C4.724,8 4.5,7.776 4.5,7.5 C4.5,4.743 6.743,2.5 9.5,2.5 C12.257,2.5 14.5,4.743 14.5,7.5 C14.5,7.776 14.276,8 14,8" id="Fill-247" fill="#f2b430"/>
    <path d="M16,8 C15.724,8 15.5,7.776 15.5,7.5 C15.5,4.191 12.809,1.5 9.5,1.5 C6.191,1.5 3.5,4.191 3.5,7.5 C3.5,7.776 3.276,8 3,8 C2.724,8 2.5,7.776 2.5,7.5 C2.5,3.641 5.64,0.5 9.5,0.5 C13.36,0.5 16.5,3.641 16.5,7.5 C16.5,7.776 16.276,8 16,8" id="Fill-248" fill="#f2b430"/>
    <path d="M20,28 L9,28 C7.895,28 7,28.895 7,30 C7,31.105 7.895,32 9,32 L20,32 C21.105,32 22,31.105 22,30 C22,28.895 21.105,28 20,28 M20,29 C20.551,29 21,29.449 21,30 C21,30.551 20.551,31 20,31 L9,31 C8.449,31 8,30.551 8,30 C8,29.449 8.449,29 9,29 L20,29" id="Fill-249" fill="#f2b430"/>
    <path d="M26,28 C24.895,28 24,28.895 24,30 C24,31.105 24.895,32 26,32 C27.105,32 28,31.105 28,30 C28,28.895 27.105,28 26,28 M26,29 C26.551,29 27,29.449 27,30 C27,30.551 26.551,31 26,31 C25.449,31 25,30.551 25,30 C25,29.449 25.449,29 26,29" id="Fill-250" fill="#f2b430"/>
    <path d="M49,12 L48,11 L48,15 L49,15 L49,12 Z" id="Fill-251" fill="#f2b430"/>
    <path d="M51,15 L52,15 L52,12 L51,12 L51,15 Z" id="Fill-252" fill="#f2b430"/>
    <path d="M47.7574,2.7574 C45.4144,5.1004 45.4144,8.8994 47.7574,11.2424 C48.9294,12.4144 50.4644,13.0004 52.0004,13.0004 C53.5354,13.0004 55.0714,12.4144 56.2424,11.2424 L47.7574,2.7574 Z M47.8284,4.2424 L54.7584,11.1724 C53.9474,11.7114 52.9954,12.0004 52.0004,12.0004 C50.6644,12.0004 49.4084,11.4804 48.4644,10.5354 C46.7574,8.8284 46.5454,6.1834 47.8284,4.2424 L47.8284,4.2424 Z" id="Fill-253" fill="#1d7ed0"/>
    <path d="M55,5 C55,5.552 54.552,6 54,6 C53.448,6 53,5.552 53,5 C53,4.448 53.448,4 54,4 C54.552,4 55,4.448 55,5" id="Fill-254" fill="#1d7ed0"/>
    <path d="M52.3535,7.3535 L51.6465,6.6465 L53.6465,4.6465 L54.3535,5.3535 L52.3535,7.3535 Z" id="Fill-255" fill="#1d7ed0"/>
    <path d="M37,0 L26,0 C24.9,0 24,0.9 24,2 L24,8 C24,9.1 24.9,10 26,10 L37,10 C38.1,10 39,9.1 39,8 L39,2 C39,0.9 38.1,0 37,0 M37,1 C37.551,1 38,1.449 38,2 L38,8 C38,8.551 37.551,9 37,9 L26,9 C25.449,9 25,8.551 25,8 L25,2 C25,1.449 25.449,1 26,1 L37,1" id="Fill-256" fill="#1d7ed0"/>
    <path d="M33,2 C31.343,2 30,3.343 30,5 C30,6.657 31.343,8 33,8 C34.657,8 36,6.657 36,5 C36,3.343 34.657,2 33,2 M33,3 C34.103,3 35,3.897 35,5 C35,6.103 34.103,7 33,7 C31.897,7 31,6.103 31,5 C31,3.897 31.897,3 33,3" id="Fill-257" fill="#1d7ed0"/>
    <path d="M27,9 L28,9 L28,1 L27,1 L27,9 Z" id="Fill-258" fill="#1d7ed0"/>
   </g>
  </g>
 </g>
</svg>
