<?xml version="1.0" encoding="UTF-8" standalone="no"?>
<svg width="64" height="64" viewBox="0 0 64 64" version="1.1" xmlns="http://www.w3.org/2000/svg">
 <g id="Page-1" fill="none" fill-rule="evenodd">
  <g id="Artboard-3" transform="translate(-316.000000, -448.000000)">
   <g id="Moon-Phases" transform="translate(316.000000, 448.000000)">
    <path d="M32,0 C28.15,0 25,3.15 25,7 C25,10.85 28.15,14 32,14 C35.85,14 39,10.85 39,7 C39,3.15 35.85,0 32,0 M32,1 C35.308,1 38,3.692 38,7 C38,10.308 35.308,13 32,13 C28.692,13 26,10.308 26,7 C26,3.692 28.692,1 32,1" id="Fill-422" fill="#f2b430"/>
    <path d="M32,0 L32,0 C35.85,0 39,3.15 39,7 C39,10.85 35.85,14 32,14 L32,0 Z" id="Fill-430" fill="#f2b430"/>
    <path d="M7,25 C3.15,25 0,28.15 0,32 C0,35.85 3.15,39 7,39 C10.85,39 14,35.85 14,32 C14,28.15 10.85,25 7,25 M7,26 C10.308,26 13,28.692 13,32 C13,35.308 10.308,38 7,38 C3.692,38 1,35.308 1,32 C1,28.692 3.692,26 7,26" id="Fill-423" fill="#f2b430"/>
    <path d="M57,39 L57,39 C53.15,39 50,35.85 50,32 C50,28.15 53.15,25 57,25 C60.85,25 64,28.15 64,32 C64,35.85 60.85,39 57,39" id="Fill-424" fill="#1d7ed0"/>
    <path d="M50,57 C46.15,57 43,53.85 43,50 C43,46.15 46.15,43 50,43 C53.85,43 57,46.15 57,50 C57,53.85 53.85,57 50,57 Z M54,50 C54,47.041 51.827,44.571 49,44.091 C49.326,44.035 49.659,44 50,44 C53.3,44 56,46.7 56,50 C56,53.3 53.3,56 50,56 C49.659,56 49.326,55.965 49,55.909 C51.827,55.429 54,52.959 54,50 Z" id="Combined-Shape" fill="#1d7ed0"/>
    <path d="M14,43 C10.15,43 7,46.15 7,50 C7,53.85 10.15,57 14,57 C17.85,57 21,53.85 21,50 C21,46.15 17.85,43 14,43 M14,44 C17.308,44 20,46.692 20,50 C20,53.308 17.308,56 14,56 C10.692,56 8,53.308 8,50 C8,46.692 10.692,44 14,44" id="Fill-426" fill="#f2b430"/>
    <path d="M10,50 C10,47.041 12.173,44.571 15,44.091 C14.674,44.035 14.341,44 14,44 C10.7,44 8,46.7 8,50 C8,53.3 10.7,56 14,56 C14.341,56 14.674,55.965 15,55.909 C12.173,55.429 10,52.959 10,50" id="Fill-427" fill="#f2b430"/>
    <path d="M14,7 C10.15,7 7,10.15 7,14 C7,17.85 10.15,21 14,21 C17.85,21 21,17.85 21,14 C21,10.15 17.85,7 14,7 M14,8 C17.308,8 20,10.692 20,14 C20,17.308 17.308,20 14,20 C10.692,20 8,17.308 8,14 C8,10.692 10.692,8 14,8" id="Fill-428" fill="#f2b430"/>
    <path d="M50,21 C46.15,21 43,17.85 43,14 C43,10.15 46.15,7 50,7 C53.85,7 57,10.15 57,14 C57,17.85 53.85,21 50,21 Z M46,14 C46,11.041 48.173,8.571 51,8.091 C50.674,8.035 50.341,8 50,8 C46.7,8 44,10.7 44,14 C44,17.3 46.7,20 50,20 C50.341,20 50.674,19.965 51,19.909 C48.173,19.429 46,16.959 46,14 Z" id="Combined-Shape" fill="#1d7ed0"/>
    <path d="M32,50 C28.15,50 25,53.15 25,57 C25,60.85 28.15,64 32,64 C35.85,64 39,60.85 39,57 C39,53.15 35.85,50 32,50 M32,51 C35.308,51 38,53.692 38,57 C38,60.308 35.308,63 32,63 C28.692,63 26,60.308 26,57 C26,53.692 28.692,51 32,51" id="Fill-431" fill="#1d7ed0"/>
    <path d="M32,50 L32,50 C28.15,50 25,53.15 25,57 C25,60.85 28.15,64 32,64 L32,50 Z" id="Fill-432" fill="#1d7ed0"/>
    <path d="M18,14 C18,11.041 15.827,8.571 13,8.091 C13.326,8.035 13.659,8 14,8 C17.3,8 20,10.7 20,14 C20,17.3 17.3,20 14,20 C13.659,20 13.326,19.965 13,19.909 C15.827,19.429 18,16.959 18,14" id="Fill-433" fill="#f2b430"/>
   </g>
  </g>
 </g>
</svg>
