<?xml version="1.0" encoding="UTF-8" standalone="no"?>
<svg width="56" height="64" viewBox="0 0 56 64" version="1.1" xmlns="http://www.w3.org/2000/svg">
 <g id="Page-1" fill="none" fill-rule="evenodd">
  <g id="Artboard-3" transform="translate(-112.000000, -656.000000)">
   <g id="Observatory" transform="translate(112.000000, 656.000000)">
    <path d="M24,61 L32,61 L32,49 L24,49 L24,61 Z M25,60 L31,60 L31,50 L25,50 L25,60 Z" id="Fill-224" fill="#1d7ed0"/>
    <path d="M0,64 L56,64 L56,60 L0,60 L0,64 Z M1,63 L55,63 L55,61 L1,61 L1,63 Z" id="Fill-211" fill="#f2b430"/>
    <path d="M20,5 L36,5 L36,4 L20,4 L20,5 Z" id="Fill-212" fill="#1d7ed0"/>
    <path d="M28,9 C24.686,9 22,11.686 22,15 C22,18.314 24.686,21 28,21 C31.314,21 34,18.314 34,15 C34,11.686 31.314,9 28,9 M28,10 C30.757,10 33,12.243 33,15 C33,17.757 30.757,20 28,20 C25.243,20 23,17.757 23,15 C23,12.243 25.243,10 28,10" id="Fill-213" fill="#1d7ed0"/>
    <path d="M7.5,37 L7.5,37 C7.225,37 7,36.775 7,36.5 L7,32.5 C7,32.225 7.225,32 7.5,32 L7.5,32 C7.775,32 8,32.225 8,32.5 L8,36.5 C8,36.775 7.775,37 7.5,37" id="Fill-215" fill="#1d7ed0"/>
    <path d="M12.5,37 L12.5,37 C12.225,37 12,36.775 12,36.5 L12,32.5 C12,32.225 12.225,32 12.5,32 C12.775,32 13,32.225 13,32.5 L13,36.5 C13,36.775 12.775,37 12.5,37" id="Fill-216" fill="#1d7ed0"/>
    <path d="M17.5,37 L17.5,37 C17.225,37 17,36.775 17,36.5 L17,32.5 C17,32.225 17.225,32 17.5,32 C17.775,32 18,32.225 18,32.5 L18,36.5 C18,36.775 17.775,37 17.5,37" id="Fill-217" fill="#1d7ed0"/>
    <path d="M22.5,37 L22.5,37 C22.225,37 22,36.775 22,36.5 L22,32.5 C22,32.225 22.225,32 22.5,32 C22.775,32 23,32.225 23,32.5 L23,36.5 C23,36.775 22.775,37 22.5,37" id="Fill-218" fill="#1d7ed0"/>
    <path d="M27.5,37 L27.5,37 C27.225,37 27,36.775 27,36.5 L27,32.5 C27,32.225 27.225,32 27.5,32 C27.775,32 28,32.225 28,32.5 L28,36.5 C28,36.775 27.775,37 27.5,37" id="Fill-219" fill="#1d7ed0"/>
    <path d="M32.5,37 L32.5,37 C32.225,37 32,36.775 32,36.5 L32,32.5 C32,32.225 32.225,32 32.5,32 C32.775,32 33,32.225 33,32.5 L33,36.5 C33,36.775 32.775,37 32.5,37" id="Fill-220" fill="#1d7ed0"/>
    <path d="M37.5,37 L37.5,37 C37.225,37 37,36.775 37,36.5 L37,32.5 C37,32.225 37.225,32 37.5,32 C37.775,32 38,32.225 38,32.5 L38,36.5 C38,36.775 37.775,37 37.5,37" id="Fill-221" fill="#1d7ed0"/>
    <path d="M42.5,37 L42.5,37 C42.225,37 42,36.775 42,36.5 L42,32.5 C42,32.225 42.225,32 42.5,32 C42.775,32 43,32.225 43,32.5 L43,36.5 C43,36.775 42.775,37 42.5,37" id="Fill-222" fill="#1d7ed0"/>
    <path d="M47.5,37 L47.5,37 C47.225,37 47,36.775 47,36.5 L47,32.5 C47,32.225 47.225,32 47.5,32 C47.775,32 48,32.225 48,32.5 L48,36.5 C48,36.775 47.775,37 47.5,37" id="Fill-223" fill="#1d7ed0"/>
    <path d="M2,60 L3,60 L3,33 L2,33 L2,60 Z" id="Fill-225" fill="#1d7ed0"/>
    <path d="M53,60 L54,60 L54,33 L53,33 L53,60 Z" id="Fill-226" fill="#1d7ed0"/>
    <path d="M20,0 C10.013,0.528 2,8.887 2,19 L2,30 L20,30 L20,0 Z M19,1.085 L19,29 L3,29 L3,19 C3,9.766 9.946,2.091 19,1.085 L19,1.085 Z" id="Fill-227" fill="#1d7ed0"/>
    <path d="M36,0 L36,30 L54,30 L54,19 C54,8.887 45.987,0.528 36,0 M37,1.085 C46.054,2.091 53,9.766 53,19 L53,29 L37,29 L37,1.085" id="Fill-228" fill="#1d7ed0"/>
    <path d="M5.5,20 C5.224,20 5,19.776 5,19.5 C5,13.342 7.928,8.218 13.245,5.069 C13.484,4.93 13.791,5.009 13.93,5.245 C14.071,5.482 13.992,5.79 13.755,5.931 C8.682,8.934 6,13.626 6,19.5 C6,19.776 5.776,20 5.5,20" id="Fill-229" fill="#f2b430"/>
    <path d="M31.5,15 C31.224,15 31,14.776 31,14.5 C31,13.309 29.691,12 28.5,12 C28.224,12 28,11.776 28,11.5 C28,11.224 28.224,11 28.5,11 C30.233,11 32,12.767 32,14.5 C32,14.776 31.776,15 31.5,15" id="Fill-230" fill="#f2b430"/>
    <path d="M0,33 L56,33 L56,29 L0,29 L0,33 Z M1,32 L55,32 L55,30 L1,30 L1,32 Z" id="Fill-214" fill="#f2b430"/>
   </g>
  </g>
 </g>
</svg>
