<?xml version="1.0" encoding="UTF-8" standalone="no"?>
<svg width="64" height="64" viewBox="0 0 64 64" version="1.1" xmlns="http://www.w3.org/2000/svg">
 <g id="Page-1" fill="none" fill-rule="evenodd">
  <g id="Artboard-3" transform="translate(-212.000000, -448.000000)">
   <g id="Planet-4" transform="translate(212.000000, 448.000000)">
    <path d="M52.6929,55.3633 C52.6719,55.1763 52.1869,50.7613 52.5029,47.9443 C52.5979,47.1023 52.7089,46.3543 52.8079,45.6823 C53.2119,42.9633 53.3959,41.7223 51.6929,40.3943 C50.3749,39.3683 48.5829,39.7673 46.6879,40.1923 C45.0819,40.5503 43.4219,40.9233 41.8639,40.4813 C38.4909,39.5253 37.1169,33.9633 37.5019,28.9613 C37.7099,26.2563 38.9619,22.8013 41.2899,21.1823 C42.4639,20.3643 43.7949,20.1363 45.1369,20.5193 C46.1259,20.8023 47.1089,20.7613 48.1479,20.7163 C49.6449,20.6553 51.3429,20.5823 53.2299,21.5553 C53.7859,21.8423 54.3399,21.7983 54.9209,21.4163 C55.9249,20.7563 56.5269,19.4053 56.5009,19.0343 C56.5009,19.0333 56.4769,18.8743 56.0839,18.5653 C54.6239,17.4173 50.5629,16.1533 49.0759,16.3803 C48.4689,16.4733 48.0409,17.1693 47.6959,17.7273 C47.5939,17.8943 47.4979,18.0483 47.4069,18.1753 C46.7669,19.0743 44.5519,19.8033 42.8749,19.3693 C42.4099,19.2503 42.0649,18.9583 41.8759,18.5283 C41.2549,17.1103 42.5469,14.6743 42.5599,14.6493 C42.9279,13.9623 44.1199,12.7963 45.8909,12.3983 C46.3979,12.2833 46.9889,12.2153 47.5619,12.1483 C48.2499,12.0683 49.4029,11.9333 49.5859,11.7203 C49.8639,11.3003 49.7599,10.7283 49.6389,10.0663 C49.5779,9.7263 49.5139,9.3753 49.5009,9.0183 C49.4919,8.7903 49.4789,8.5603 49.4659,8.3293 C49.4209,7.5303 49.3739,6.7023 49.5069,5.9163 L50.4929,6.0833 C50.3789,6.7583 50.4219,7.5293 50.4639,8.2733 C50.4779,8.5103 50.4909,8.7473 50.4999,8.9813 C50.5099,9.2663 50.5649,9.5683 50.6229,9.8873 C50.7619,10.6513 50.9199,11.5173 50.4169,12.2763 C50.0259,12.8673 48.9889,12.9883 47.6769,13.1413 C47.1309,13.2053 46.5659,13.2713 46.1099,13.3733 C44.7529,13.6783 43.7319,14.5793 43.4409,15.1223 C43.0639,15.8253 42.4849,17.4283 42.7919,18.1263 C42.8569,18.2763 42.9569,18.3583 43.1249,18.4013 C44.5129,18.7613 46.2519,18.0753 46.5929,17.5953 C46.6719,17.4843 46.7549,17.3483 46.8449,17.2033 C47.2739,16.5073 47.8599,15.5553 48.9239,15.3913 C50.6929,15.1193 55.0669,16.4713 56.7299,17.8003 C57.2199,18.1923 57.4719,18.5733 57.4989,18.9653 C57.5579,19.8113 56.6659,21.4663 55.4699,22.2523 C54.5879,22.8343 53.6529,22.9003 52.7709,22.4443 C51.1199,21.5923 49.6959,21.6513 48.1899,21.7163 C47.1159,21.7613 46.0069,21.8083 44.8629,21.4813 C43.8019,21.1773 42.7939,21.3543 41.8599,22.0033 C39.8129,23.4273 38.6829,26.6483 38.4989,29.0383 C38.1529,33.5213 39.3109,38.7183 42.1359,39.5193 C43.4499,39.8903 44.9859,39.5473 46.4689,39.2163 C48.5089,38.7603 50.6169,38.2883 52.3079,39.6053 C54.4699,41.2923 54.2169,42.9993 53.7969,45.8293 C53.6989,46.4903 53.5899,47.2263 53.4969,48.0553 C53.1929,50.7613 53.6819,55.2083 53.6869,55.2523 L52.6929,55.3633 Z" id="Fill-149" fill="#f2b430"/>
    <path d="M14.5,58.0078 L13.5,57.9918 C13.501,57.9378 13.557,52.4688 11.575,49.2628 L10.987,48.3148 C9.168,45.3898 7.967,43.4568 7.509,41.0948 C7.386,40.4608 7.377,39.5908 7.368,38.5858 C7.344,36.0478 7.31,32.5728 5.557,29.2328 C3.081,24.5138 1.6,22.3008 1.585,22.2788 L2.415,21.7208 C2.476,21.8108 3.937,23.9918 6.443,28.7678 C8.308,32.3218 8.344,36.0858 8.368,38.5758 C8.377,39.5328 8.385,40.3598 8.491,40.9048 C8.914,43.0858 10.014,44.8548 11.836,47.7868 L12.425,48.7368 C14.562,52.1948 14.503,57.7718 14.5,58.0078" id="Fill-150" fill="#f2b430"/>
    <path d="M19.501,61.0303 C19.379,58.9913 21.954,54.4363 23.637,52.6563 C24.379,51.8703 25.155,51.4753 25.839,51.1273 C27.119,50.4753 28.129,49.9613 28.504,46.9383 C28.746,44.9833 28.485,40.9003 25.764,39.4403 C22.195,37.5273 21.237,36.1003 20.024,34.2943 C19.611,33.6793 19.184,33.0433 18.607,32.3093 C17.812,31.2973 15.595,30.8763 13.638,30.5053 C11.264,30.0543 9.022,29.6283 8.526,28.1593 C7.851,26.1603 8.626,23.3723 10.598,20.7023 C12.334,18.3533 14.787,17.1133 17.384,15.7993 C18.154,15.4103 18.949,15.0083 19.759,14.5623 C21.784,13.4463 22.961,12.2663 23.257,11.0553 C23.47,10.1873 23.25,9.2783 22.584,8.2773 C21.152,6.1253 17.813,4.4653 17.779,4.4483 L18.221,3.5513 C18.368,3.6233 21.837,5.3493 23.417,7.7233 C24.234,8.9523 24.508,10.1543 24.229,11.2933 C23.858,12.8083 22.554,14.1643 20.241,15.4383 C19.421,15.8903 18.616,16.2973 17.835,16.6923 C15.239,18.0043 12.998,19.1383 11.402,21.2973 C9.65,23.6683 8.912,26.1753 9.474,27.8403 C9.782,28.7553 11.837,29.1453 13.825,29.5223 C16.058,29.9463 18.367,30.3843 19.393,31.6913 C19.994,32.4553 20.451,33.1363 20.854,33.7373 C22.034,35.4943 22.887,36.7633 26.236,38.5593 C29.436,40.2753 29.768,44.8703 29.496,47.0613 C29.057,50.6113 27.714,51.2943 26.293,52.0183 C25.651,52.3453 24.987,52.6833 24.363,53.3433 C22.685,55.1193 20.403,59.3633 20.499,60.9693 L19.501,61.0303 Z" id="Fill-151" fill="#f2b430"/>
    <path d="M33.4868,4.5156 C33.2968,4.5156 33.1208,4.5096 32.9648,4.4986 C29.3948,4.2416 26.4168,2.9266 25.5538,1.2256 L26.4458,0.7736 C27.1338,2.1286 29.9048,3.2756 33.0358,3.5016 C34.9958,3.6346 39.3718,2.8276 40.6598,1.6336 L41.3398,2.3666 C39.8048,3.7906 35.6528,4.5156 33.4868,4.5156" id="Fill-152" fill="#f2b430"/>
    <path d="M32,0 C14.327,0 0,14.327 0,32 C0,49.673 14.327,64 32,64 C49.673,64 64,49.673 64,32 C64,14.327 49.673,0 32,0 M32,1 C49.093,1 63,14.907 63,32 C63,49.093 49.093,63 32,63 C14.907,63 1,49.093 1,32 C1,14.907 14.907,1 32,1" id="Fill-148" fill="#1d7ed0"/>
   </g>
  </g>
 </g>
</svg>
