<?xml version="1.0" encoding="UTF-8" standalone="no"?>
<svg width="36" height="64" viewBox="0 0 36 64" version="1.1" xmlns="http://www.w3.org/2000/svg">
 <g id="Page-1" fill="none" fill-rule="evenodd">
  <g id="Artboard-3" transform="translate(-538.000000, -656.000000)">
   <g id="Rocket" transform="translate(538.000000, 656.000000)">
    <path d="M18,13 C13.946,13 11.864,11.991 11.778,11.948 L12.221,11.052 C12.24,11.061 14.206,12 18,12 C21.746,12 23.764,11.059 23.783,11.049 L24.218,11.95 C24.129,11.993 21.998,13 18,13" id="Fill-316" fill="#f2b430"/>
    <path d="M18,17 C15.239,17 13,19.239 13,22 C13,24.761 15.239,27 18,27 C20.761,27 23,24.761 23,22 C23,19.239 20.761,17 18,17 M18,18 C20.206,18 22,19.794 22,22 C22,24.206 20.206,26 18,26 C15.794,26 14,24.206 14,22 C14,19.794 15.794,18 18,18" id="Fill-317" fill="#1d7ed0"/>
    <path d="M20.5,22 C20.224,22 20,21.776 20,21.5 C20,20.673 19.327,20 18.5,20 C18.224,20 18,19.776 18,19.5 C18,19.224 18.224,19 18.5,19 C19.879,19 21,20.121 21,21.5 C21,21.776 20.776,22 20.5,22" id="Fill-324" fill="#f2b430"/>
    <path d="M21,33 L15,33 C13.9,33 13,33.9 13,35 L13,45 C13,46.1 13.9,47 15,47 L21,47 C22.1,47 23,46.1 23,45 L23,35 C23,33.9 22.1,33 21,33 M21,34 C21.551,34 22,34.449 22,35 L22,45 C22,45.551 21.551,46 21,46 L15,46 C14.449,46 14,45.551 14,45 L14,35 C14,34.449 14.449,34 15,34 L21,34" id="Fill-325" fill="#1d7ed0"/>
    <path d="M18,35 C16.35,35 15,36.35 15,38 C15,39.65 16.35,41 18,41 C19.65,41 21,39.65 21,38 C21,36.35 19.65,35 18,35 M18,36 C19.103,36 20,36.897 20,38 C20,39.103 19.103,40 18,40 C16.897,40 16,39.103 16,38 C16,36.897 16.897,36 18,36" id="Fill-326" fill="#f2b430"/>
    <path d="M8.5107,55.1025 L4.5107,36.1025 L5.4897,35.8975 L9.4897,54.8975 L8.5107,55.1025 Z" id="Fill-362" fill="#f2b430"/>
    <path d="M27.4893,55.1025 L26.5103,54.8975 L30.5103,35.8975 L31.4893,36.1025 L27.4893,55.1025 Z" id="Fill-363" fill="#f2b430"/>
    <path d="M11.2366,53.4891 C8.1036,54.4991 4.6806,56.9401 3.0486,62.5931 C3.0186,62.6971 2.9976,62.7761 2.9756,62.8371 C2.9606,62.8771 2.9426,62.9281 2.9246,62.9731 C-2.3554,47.8571 4.4936,37.3161 7.5576,33.1201 C7.5146,32.6021 7.4786,32.0901 7.4496,31.5851 C5.0596,34.8051 -3.9464,46.3751 1.9906,63.3301 C2.1326,63.7341 2.3886,64.0001 2.9346,64.0001 C3.6286,64.0001 3.7876,63.5341 3.9216,63.1621 C4.1946,62.4011 5.6266,55.2581 13.3686,54.0001 L11.3686,54.0001 C11.3686,54.0001 11.3196,53.8151 11.2366,53.4891" id="Fill-328" fill="#1d7ed0"/>
    <path d="M28.5086,31.5282 C28.4746,32.0512 28.4356,32.5772 28.3896,33.1072 C28.3926,33.0922 28.3956,33.0742 28.3986,33.0592 C31.4396,37.2132 38.3806,47.7852 33.0756,62.9732 C33.0576,62.9282 33.0396,62.8772 33.0246,62.8372 C33.0036,62.7762 32.9816,62.6972 32.9516,62.5932 C31.3196,56.9392 27.8966,54.4992 24.7636,53.4892 C24.6806,53.8152 24.6316,54.0002 24.6316,54.0002 L22.6316,54.0002 C30.3736,55.2582 31.8056,62.4012 32.0796,63.1622 C32.2126,63.5342 32.3716,64.0002 33.0666,64.0002 C33.6116,64.0002 33.8686,63.7342 34.0106,63.3302 C39.9796,46.2812 30.8376,34.6732 28.5086,31.5282" id="Fill-329" fill="#1d7ed0"/>
    <path d="M24,53 L12,53 L12.721,57.329 C12.882,58.293 13.717,59 14.694,59 L21.306,59 C22.283,59 23.118,58.293 23.279,57.329 L24,53 Z M22.82,54 L22.292,57.164 C22.211,57.649 21.797,58 21.306,58 L14.694,58 C14.203,58 13.789,57.649 13.708,57.164 L13.18,54 L22.82,54 L22.82,54 Z" id="Fill-330" fill="#f2b430"/>
    <path d="M18,0 C18,0 7,14.11 7,29 C7,38.949 11,54 11,54 L18,54 L25,54 C25,54 29,38.944 29,28 C29,15.872 18,0 18,0 M17.96,1.756 C20.447,5.628 28,18.2 28,28 C28,37.316 25.014,49.845 24.223,53 L18,53 L11.776,53 C10.984,49.859 8,37.461 8,29 C8,17.018 15.433,5.37 17.96,1.756" id="Fill-327" fill="#1d7ed0"/>
   </g>
  </g>
 </g>
</svg>
