<?xml version="1.0" encoding="UTF-8" standalone="no"?>
<svg width="64" height="64" viewBox="0 0 64 64" version="1.1" xmlns="http://www.w3.org/2000/svg">
 <g id="Page-1" fill="none" fill-rule="evenodd">
  <g id="Artboard-3" transform="translate(-524.000000, -552.000000)">
   <g id="Satellite-2" transform="translate(524.000000, 552.000000)">
    <path d="M26.6714,48.8686 L25.1714,52.7686 C24.9894,53.2426 24.5514,53.4106 24.2324,53.4106 C24.0464,53.4106 23.7734,53.3596 23.5314,53.1166 L10.8834,40.4686 C10.6394,40.2256 10.5404,39.8916 10.6124,39.5546 C10.6834,39.2166 10.9094,38.9526 11.2314,38.8286 L15.1154,37.3346 L14.2504,36.5956 L10.8724,37.8956 C9.5214,38.4146 9.1524,40.1526 10.1764,41.1766 L22.8234,53.8236 C23.2224,54.2226 23.7304,54.4106 24.2324,54.4106 C25.0174,54.4106 25.7874,53.9516 26.1044,53.1276 L27.4414,49.6516 L26.6714,48.8686 Z" id="Fill-358" fill="#f2b430"/>
    <path d="M6.1465,3.8535 L6.8535,3.1465 L5.8535,2.1465 C5.6585,1.9515 5.3415,1.9515 5.1465,2.1465 C4.9515,2.3415 4.9515,2.6585 5.1465,2.8535 L6.1465,3.8535 Z" id="Fill-334" fill="#f2b430"/>
    <path d="M10,0 L0,10 L5,15 L15,5 L10,0 Z M10,1.414 L13.586,5 L5,13.586 L1.414,10 L10,1.414 Z" id="Fill-335" fill="#1d7ed0"/>
    <path d="M16,6 L6,16 L11,21 L21,11 L16,6 Z M16,7.414 L19.586,11 L11,19.586 L7.414,16 L16,7.414 Z" id="Fill-336" fill="#1d7ed0"/>
    <path d="M22,12 L12,22 L17,27 L27,17 L22,12 Z M22,13.414 L25.586,17 L17,25.586 L13.414,22 L22,13.414 Z" id="Fill-337" fill="#1d7ed0"/>
    <path d="M12.8535,9.1465 L11.8535,8.1465 L11.1465,8.8535 L12.1465,9.8535 L12.8535,9.1465 Z" id="Fill-338" fill="#f2b430"/>
    <path d="M18.8535,15.1465 L17.8535,14.1465 L17.1465,14.8535 L18.1465,15.8535 L18.8535,15.1465 Z" id="Fill-339" fill="#f2b430"/>
    <path d="M26,22.293 L23.854,20.147 L23.146,20.854 L25.293,23 L26,22.293 Z" id="Fill-340" fill="#f2b430"/>
    <path d="M23,25.293 L20.854,23.147 L20.146,23.854 L22.293,26 L23,25.293 Z" id="Fill-341" fill="#f2b430"/>
    <path d="M14.1465,17.8535 L15.1465,18.8535 L15.8535,18.1465 L14.8535,17.1465 L14.1465,17.8535 Z" id="Fill-342" fill="#f2b430"/>
    <path d="M3.1465,6.8535 L3.8535,6.1465 L2.8535,5.1465 C2.6585,4.9515 2.3415,4.9515 2.1465,5.1465 C1.9515,5.3415 1.9515,5.6585 2.1465,5.8535 L3.1465,6.8535 Z" id="Fill-343" fill="#f2b430"/>
    <path d="M8.1465,11.8535 L9.1465,12.8535 L9.8535,12.1465 L8.8535,11.1465 L8.1465,11.8535 Z" id="Fill-344" fill="#f2b430"/>
    <path d="M57.8535,60.1465 L57.1465,60.8535 L58.1465,61.8535 C58.3415,62.0485 58.6585,62.0485 58.8535,61.8535 C59.0485,61.6585 59.0485,61.3415 58.8535,61.1465 L57.8535,60.1465 Z" id="Fill-345" fill="#f2b430"/>
    <path d="M33.9997,14.2926 L49.7077,30.0006 L49.6467,31.3536 L32.6467,14.3536 L33.9997,14.2926 Z" id="Fill-361" fill="#f2b430"/>
    <path d="M59,49 L49,59 L54,64 L64,54 L59,49 Z M59,50.414 L62.586,54 L54,62.586 L50.414,59 L59,50.414 Z" id="Fill-346" fill="#1d7ed0"/>
    <path d="M53,43 L43,53 L48,58 L58,48 L53,43 Z M53,44.414 L56.586,48 L48,56.586 L44.414,53 L53,44.414 Z" id="Fill-347" fill="#1d7ed0"/>
    <path d="M47,37 L37,47 L42,52 L52,42 L47,37 Z M47,38.414 L50.586,42 L42,50.586 L38.414,47 L47,38.414 Z" id="Fill-348" fill="#1d7ed0"/>
    <path d="M51.1465,54.8535 L52.1465,55.8535 L52.8535,55.1465 L51.8535,54.1465 L51.1465,54.8535 Z" id="Fill-349" fill="#f2b430"/>
    <path d="M45.1465,48.8535 L46.1465,49.8535 L46.8535,49.1465 L45.8535,48.1465 L45.1465,48.8535 Z" id="Fill-350" fill="#f2b430"/>
    <path d="M38,41.707 L40.146,43.853 L40.854,43.146 L38.707,41 L38,41.707 Z" id="Fill-351" fill="#f2b430"/>
    <path d="M41,38.707 L43.146,40.853 L43.854,40.146 L41.707,38 L41,38.707 Z" id="Fill-352" fill="#f2b430"/>
    <path d="M49.8535,46.1465 L48.8535,45.1465 L48.1465,45.8535 L49.1465,46.8535 L49.8535,46.1465 Z" id="Fill-353" fill="#f2b430"/>
    <path d="M60.8535,57.1465 L60.1465,57.8535 L61.1465,58.8535 C61.3415,59.0485 61.6585,59.0485 61.8535,58.8535 C62.0485,58.6585 62.0485,58.3415 61.8535,58.1465 L60.8535,57.1465 Z" id="Fill-354" fill="#f2b430"/>
    <path d="M55.8535,52.1465 L54.8535,51.1465 L54.1465,51.8535 L55.1465,52.8535 L55.8535,52.1465 Z" id="Fill-355" fill="#f2b430"/>
    <path d="M28.2929,49.8787 L14.1209,35.7067 C13.7309,35.3167 13.7309,34.6837 14.1209,34.2927 L14.7069,33.7067 L13.9999,32.9997 L13.4139,33.5857 C12.6329,34.3667 12.6329,35.6337 13.4139,36.4147 L27.5859,50.5857 C28.3669,51.3667 29.6329,51.3667 30.4139,50.5857 L30.9999,49.9997 L30.2929,49.2927 L29.7069,49.8787 C29.3169,50.2697 28.6839,50.2697 28.2929,49.8787" id="Fill-356" fill="#1d7ed0"/>
    <path d="M47,12 L33,14 L14,33 L31,50 L50,31 L52,17 L47,12 Z M46.646,13.061 L50.939,17.354 L49.057,30.529 L31,48.586 L15.414,33 L33.471,14.943 L46.646,13.061 Z" id="Fill-357" fill="#1d7ed0"/>
    <path d="M32,25 C28.134,25 25,28.134 25,32 C25,35.866 28.134,39 32,39 C35.866,39 39,35.866 39,32 C39,28.134 35.866,25 32,25 M32,26 C35.308,26 38,28.692 38,32 C38,35.308 35.308,38 32,38 C28.692,38 26,35.308 26,32 C26,28.692 28.692,26 32,26" id="Fill-359" fill="#1d7ed0"/>
    <path d="M36.5,32 C36.224,32 36,31.776 36,31.5 C36,29.799 34.201,28 32.5,28 C32.224,28 32,27.776 32,27.5 C32,27.224 32.224,27 32.5,27 C34.771,27 37,29.229 37,31.5 C37,31.776 36.776,32 36.5,32" id="Fill-360" fill="#f2b430"/>
   </g>
  </g>
 </g>
</svg>
