<?xml version="1.0" encoding="UTF-8" standalone="no"?>
<svg width="64" height="64" viewBox="0 0 64 64" version="1.1" xmlns="http://www.w3.org/2000/svg">
 <g id="Page-1" fill="none" fill-rule="evenodd">
  <g id="Artboard-3" transform="translate(-108.000000, -448.000000)">
   <g id="Satellite-1" transform="translate(108.000000, 448.000000)">
    <path d="M3.3535,13.3535 L2.6465,12.6465 L12.6465,2.6465 L13.3535,3.3535 L3.3535,13.3535 Z" id="Fill-121" fill="#1d7ed0"/>
    <path d="M51.3535,61.3535 L50.6465,60.6465 L60.6465,50.6465 L61.3535,51.3535 L51.3535,61.3535 Z" id="Fill-122" fill="#1d7ed0"/>
    <path d="M17.3535,47.3535 L16.6465,46.6465 L22.6465,40.6465 L23.3535,41.3535 L17.3535,47.3535 Z" id="Fill-119" fill="#f2b430"/>
    <path d="M18,47.5 C18,48.328 17.328,49 16.5,49 C15.672,49 15,48.328 15,47.5 C15,46.672 15.672,46 16.5,46 C17.328,46 18,46.672 18,47.5" id="Fill-120" fill="#f2b430"/>
    <path d="M45,35.8284 C44.488,35.8284 43.976,36.0234 43.586,36.4144 L36.414,43.5854 C35.633,44.3664 35.633,45.6334 36.414,46.4144 L54,64.0004 L64,54.0004 L46.414,36.4144 C46.024,36.0234 45.512,35.8284 45,35.8284 M45,36.8284 C45.267,36.8284 45.518,36.9324 45.707,37.1214 L62.586,54.0004 L54,62.5854 L37.121,45.7074 C36.932,45.5184 36.828,45.2674 36.828,45.0004 C36.828,44.7324 36.932,44.4814 37.121,44.2924 L44.293,37.1214 C44.482,36.9324 44.733,36.8284 45,36.8284" id="Fill-116" fill="#1d7ed0"/>
    <path d="M10,0 L0,10 L17.586,27.586 C17.976,27.976 18.488,28.172 19,28.172 C19.512,28.172 20.024,27.976 20.414,27.586 L27.586,20.414 C28.367,19.633 28.367,18.367 27.586,17.586 L10,0 Z M10,1.414 L26.879,18.293 C27.068,18.482 27.172,18.733 27.172,19 C27.172,19.267 27.068,19.518 26.879,19.707 L19.707,26.879 C19.518,27.068 19.267,27.172 19,27.172 C18.733,27.172 18.482,27.068 18.293,26.879 L1.414,10 L10,1.414 L10,1.414 Z" id="Fill-117" fill="#1d7ed0"/>
    <path d="M35,16.8284 C34.488,16.8284 33.976,17.0234 33.586,17.4144 L17.414,33.5854 C16.633,34.3664 16.633,35.6334 17.414,36.4144 L27.586,46.5854 C27.976,46.9764 28.488,47.1714 29,47.1714 C29.512,47.1714 30.024,46.9764 30.414,46.5854 L46.586,30.4144 C47.367,29.6334 47.367,28.3664 46.586,27.5854 L36.414,17.4144 C36.024,17.0234 35.512,16.8284 35,16.8284 M35,17.8284 C35.267,17.8284 35.518,17.9324 35.707,18.1214 L45.879,28.2924 C46.068,28.4814 46.172,28.7324 46.172,29.0004 C46.172,29.2674 46.068,29.5184 45.879,29.7074 L29.707,45.8784 C29.518,46.0674 29.267,46.1714 29,46.1714 C28.733,46.1714 28.482,46.0674 28.293,45.8784 L18.121,35.7074 C17.932,35.5184 17.828,35.2674 17.828,35.0004 C17.828,34.7324 17.932,34.4814 18.121,34.2924 L34.293,18.1214 C34.482,17.9324 34.733,17.8284 35,17.8284" id="Fill-118" fill="#1d7ed0"/>
    <path d="M41.3535,23.3535 L40.6465,22.6465 L42.1465,21.1465 L42.8535,21.8535 L41.3535,23.3535 Z" id="Fill-123" fill="#1d7ed0"/>
    <path d="M42.4645,14.4645 C40.5115,16.4175 40.5115,19.5825 42.4645,21.5355 C43.4405,22.5115 44.7205,23.0005 46.0005,23.0005 C47.2795,23.0005 48.5595,22.5115 49.5355,21.5355 L42.4645,14.4645 Z M42.5535,15.9675 L48.0325,21.4465 C47.4235,21.8075 46.7265,22.0005 46.0005,22.0005 C44.9315,22.0005 43.9275,21.5835 43.1715,20.8285 C42.4165,20.0725 42.0005,19.0685 42.0005,18.0005 C42.0005,17.2735 42.1925,16.5765 42.5535,15.9675 L42.5535,15.9675 Z" id="Fill-124" fill="#1d7ed0"/>
    <path d="M50.1211,18.6211 C49.9931,18.6211 49.8651,18.5721 49.7671,18.4751 C49.5721,18.2791 49.5721,17.9631 49.7671,17.7671 C50.2401,17.2951 50.5001,16.6671 50.5001,16.0001 C50.5001,15.3321 50.2401,14.7041 49.7671,14.2321 C48.8231,13.2881 47.1771,13.2881 46.2321,14.2321 C46.0371,14.4281 45.7211,14.4281 45.5251,14.2321 C45.3301,14.0371 45.3301,13.7211 45.5251,13.5251 C46.8471,12.2031 49.1531,12.2031 50.4751,13.5251 C51.1361,14.1861 51.5001,15.0651 51.5001,16.0001 C51.5001,16.9351 51.1361,17.8141 50.4751,18.4751 C50.3771,18.5721 50.2491,18.6211 50.1211,18.6211" id="Fill-125" fill="#f2b430"/>
    <path d="M52.2427,20.7427 C52.1147,20.7427 51.9867,20.6937 51.8887,20.5967 C51.6937,20.4007 51.6937,20.0847 51.8887,19.8887 C52.9287,18.8497 53.4997,17.4697 53.4997,15.9997 C53.4997,14.5307 52.9287,13.1497 51.8887,12.1107 C50.8497,11.0717 49.4697,10.4997 47.9997,10.4997 C46.5307,10.4997 45.1497,11.0717 44.1107,12.1107 C43.9157,12.3057 43.5987,12.3057 43.4037,12.1107 C43.2087,11.9157 43.2087,11.5987 43.4037,11.4037 C45.9377,8.8697 50.0617,8.8697 52.5967,11.4037 C55.1307,13.9377 55.1307,18.0617 52.5967,20.5967 C52.4987,20.6937 52.3707,20.7427 52.2427,20.7427" id="Fill-126" fill="#f2b430"/>
    <path d="M54.3638,22.8638 C54.2358,22.8638 54.1078,22.8148 54.0098,22.7178 C53.8148,22.5218 53.8148,22.2058 54.0098,22.0098 C55.6158,20.4048 56.4998,18.2708 56.4998,15.9998 C56.4998,13.7298 55.6158,11.5948 54.0098,9.9898 C52.4048,8.3848 50.2708,7.4998 47.9998,7.4998 C45.7298,7.4998 43.5948,8.3848 41.9898,9.9898 C41.7948,10.1848 41.4778,10.1848 41.2828,9.9898 C41.0878,9.7948 41.0878,9.4778 41.2828,9.2828 C43.0768,7.4888 45.4628,6.4998 47.9998,6.4998 C50.5378,6.4998 52.9228,7.4888 54.7178,9.2828 C56.5118,11.0768 57.4998,13.4628 57.4998,15.9998 C57.4998,18.5378 56.5118,20.9228 54.7178,22.7178 C54.6198,22.8148 54.4918,22.8638 54.3638,22.8638" id="Fill-127" fill="#f2b430"/>
    <path d="M23.1465,23.8535 L5.1465,5.8535 L5.8535,5.1465 L23.8535,23.1465 L23.1465,23.8535 Z" id="Fill-128" fill="#f2b430"/>
    <path d="M58.1465,58.8535 L40.1465,40.8535 L40.8535,40.1465 L58.8535,58.1465 L58.1465,58.8535 Z" id="Fill-130" fill="#f2b430"/>
   </g>
  </g>
 </g>
</svg>
