<?xml version="1.0" encoding="UTF-8" standalone="no"?>
<svg width="38" height="64" viewBox="0 0 38 64" version="1.1" xmlns="http://www.w3.org/2000/svg">
 <g id="Page-1" fill="none" fill-rule="evenodd">
  <g id="Artboard-3" transform="translate(-640.000000, -344.000000)">
   <g id="Shuttle" transform="translate(640.000000, 344.000000)">
    <path d="M10,58 L4,58 L4,59.343 C4,60.404 4.421,61.421 5.172,62.172 L7,64 L8.828,62.172 C9.579,61.421 10,60.404 10,59.343 L10,58 Z M9,59 L9,59.343 C9,60.144 8.688,60.898 8.121,61.464 L7,62.586 L5.879,61.464 C5.312,60.898 5,60.144 5,59.343 L5,59 L9,59 L9,59 Z" id="Fill-92" fill="#1d7ed0"/>
    <path d="M34,58 L28,58 L28,59.343 C28,60.404 28.421,61.421 29.172,62.172 L31,64 L32.828,62.172 C33.579,61.421 34,60.404 34,59.343 L34,58 Z M33,59 L33,59.343 C33,60.144 32.688,60.898 32.121,61.464 L31,62.586 L29.879,61.464 C29.312,60.898 29,60.144 29,59.343 L29,59 L33,59 L33,59 Z" id="Fill-93" fill="#1d7ed0"/>
    <path d="M3,56 L3,58 C3,58.55 3.45,59 4,59 L10,59 C10.55,59 11,58.55 11,58 L11,57 L10,57 L10,58 L4,58 L4,56 L3,56 Z" id="Fill-84" fill="#f2b430"/>
    <path d="M27,57 L27,58 C27,58.55 27.45,59 28,59 L34,59 C34.55,59 35,58.55 35,58 L35,56 L34,56 L34,58 L28,58 L28,57 L27,57 Z" id="Fill-85" fill="#f2b430"/>
    <path d="M15.592,24.289 C15.433,24.063 15.486,23.751 15.712,23.592 C16.789,22.831 21.182,22.572 22.338,23.631 C22.541,23.818 22.556,24.134 22.369,24.338 C22.183,24.542 21.867,24.555 21.662,24.369 C20.935,23.701 17.095,23.839 16.288,24.408 C16.201,24.47 16.101,24.5 16,24.5 C15.844,24.5 15.689,24.426 15.592,24.289 Z" id="Fill-80" fill="#f2b430"/>
    <path d="M18.9986,1.0119 L25.6486,11.9959 L25.6806,12.0479 L25.7176,12.0959 C26.5446,13.1479 26.9996,14.4639 26.9996,15.8029 L26.9996,42.2399 L27.9996,44.3169 L27.9996,15.8029 C27.9996,14.2339 27.4736,12.7109 26.5046,11.4779 L19.7866,0.3819 C19.5866,0.1269 19.2926,-0.0001 18.9996,-0.0001 C18.7066,-0.0001 18.4136,0.1269 18.2136,0.3819 L11.4956,10.9999 C10.5266,12.2329 9.9996,13.7559 9.9996,15.3249 L9.9996,44.3449 L10.9996,41.8789 L10.9996,15.3249 C10.9996,13.9869 11.4556,12.6699 12.2826,11.6179 L12.3136,11.5779 L12.3406,11.5349 L18.9986,1.0119" id="Fill-73" fill="#1d7ed0"/>
    <path d="M19,15 L19,15 L21.984,25.146 C22.658,27.438 23,29.811 23,32.2 L23,51.557 L24,51.931 L24,32.2 C24,29.717 23.644,27.246 22.943,24.864 L19.959,14.718 C19.819,14.239 19.409,14 19,14 C18.591,14 18.181,14.239 18.041,14.718 L15.057,24.864 C14.356,27.246 14,29.717 14,32.2 L14,51.828 L15,51.523 L15,32.2 C15,29.811 15.342,27.438 16.016,25.146 L18.988,15.002 C18.989,15.001 18.994,15 19,15" id="Fill-74" fill="#1d7ed0"/>
    <path d="M31,14.4014 L33.16,17.6414 C33.71,18.4654 34,19.4254 34,20.4154 L34,48.2744 L35,48.8994 L35,20.4154 C35,19.2304 34.649,18.0724 33.992,17.0874 L31.416,13.2224 C31.317,13.0744 31.159,13.0004 31,13.0004 C30.841,13.0004 30.683,13.0744 30.584,13.2224 L28.008,17.0874 C27.351,18.0724 27,19.2304 27,20.4154 L27,43.0664 L28,44.3164 L28,20.4154 C28,19.4254 28.29,18.4654 28.84,17.6414 L31,14.4014" id="Fill-75" fill="#f2b430"/>
    <path d="M7,14.4014 L9.16,17.6414 C9.71,18.4654 10,19.4254 10,20.4154 L10,44.3444 L11,43.0004 L11,20.4154 C11,19.2304 10.649,18.0724 9.992,17.0874 L7.416,13.2224 C7.317,13.0744 7.159,13.0004 7,13.0004 C6.841,13.0004 6.683,13.0744 6.584,13.2224 L4.008,17.0874 C3.351,18.0724 3,19.2304 3,20.4154 L3,49.0004 L4,48.3304 L4,20.4154 C4,19.4254 4.29,18.4654 4.84,17.6414 L7,14.4014" id="Fill-76" fill="#f2b430"/>
    <path d="M14,34.0682 L14,51.9312 L15,51.5222 L15,27.0002 L10.551,42.4082 C10.19,43.4182 9.565,44.3132 8.742,45.0002 L2.477,48.7692 C1.526,49.5612 0.903,50.6782 0.728,51.9032 L0,56.0002 L12.428,57.6572 L12.464,56.6532 L1.167,55.1472 L1.718,52.0442 C1.855,51.0872 2.331,50.2162 3.062,49.5842 L9.257,45.8572 L9.323,45.8172 L9.382,45.7682 C10.342,44.9682 11.072,43.9222 11.493,42.7452 L11.503,42.7162 L11.512,42.6862 L14,34.0682" id="Fill-77" fill="#1d7ed0"/>
    <path d="M24,34.0682 L26.488,42.6862 L26.497,42.7162 L26.507,42.7452 C26.928,43.9222 27.658,44.9682 28.618,45.7682 L28.677,45.8172 L28.743,45.8572 L34.938,49.5842 C35.669,50.2162 36.145,51.0872 36.287,52.0782 L36.833,55.1472 L25.471,56.6612 L25.439,57.6752 L38,56.0002 L37.272,51.9032 C37.097,50.6782 36.474,49.5612 35.523,48.7692 L29.258,45.0002 C28.435,44.3132 27.81,43.4182 27.449,42.4082 L23,27.0002 L23,51.5572 L24,51.7952 L24,34.0682" id="Fill-78" fill="#1d7ed0"/>
    <path d="M22,30 L16,30 C16,28.9 16.9,28 18,28 L20,28 C21.1,28 22,28.9 22,30" id="Fill-81" fill="#1d7ed0"/>
    <path d="M15.5,51 C13.575,51 12,52.575 12,54.5 L12,59 C12,59.55 12.45,60 13,60 L18,60 C18.55,60 19,59.55 19,59 L19,54.5 C19,52.575 17.425,51 15.5,51 M15.5,52 C16.878,52 18,53.122 18,54.5 L18,59 L13,59 L13,54.5 C13,53.122 14.122,52 15.5,52" id="Fill-82" fill="#f2b430"/>
    <path d="M22.5,51 C20.575,51 19,52.575 19,54.5 L19,59 C19,59.55 19.45,60 20,60 L25,60 C25.55,60 26,59.55 26,59 L26,54.5 C26,52.575 24.425,51 22.5,51 M22.5,52 C23.878,52 25,53.122 25,54.5 L25,59 L20,59 L20,54.5 C20,53.122 21.122,52 22.5,52" id="Fill-83" fill="#f2b430"/>
    <path d="M13.5,64 L13.5,64 C13.225,64 13,63.775 13,63.5 L13,61.5 C13,61.225 13.225,61 13.5,61 C13.775,61 14,61.225 14,61.5 L14,63.5 C14,63.775 13.775,64 13.5,64" id="Fill-86" fill="#1d7ed0"/>
    <path d="M15.5,64 L15.5,64 C15.225,64 15,63.775 15,63.5 L15,61.5 C15,61.225 15.225,61 15.5,61 C15.775,61 16,61.225 16,61.5 L16,63.5 C16,63.775 15.775,64 15.5,64" id="Fill-87" fill="#1d7ed0"/>
    <path d="M17.5,64 L17.5,64 C17.225,64 17,63.775 17,63.5 L17,61.5 C17,61.225 17.225,61 17.5,61 C17.775,61 18,61.225 18,61.5 L18,63.5 C18,63.775 17.775,64 17.5,64" id="Fill-88" fill="#1d7ed0"/>
    <path d="M20.5,64 L20.5,64 C20.225,64 20,63.775 20,63.5 L20,61.5 C20,61.225 20.225,61 20.5,61 C20.775,61 21,61.225 21,61.5 L21,63.5 C21,63.775 20.775,64 20.5,64" id="Fill-89" fill="#1d7ed0"/>
    <path d="M22.5,64 L22.5,64 C22.225,64 22,63.775 22,63.5 L22,61.5 C22,61.225 22.225,61 22.5,61 C22.775,61 23,61.225 23,61.5 L23,63.5 C23,63.775 22.775,64 22.5,64" id="Fill-90" fill="#1d7ed0"/>
    <path d="M24.5,64 L24.5,64 C24.225,64 24,63.775 24,63.5 L24,61.5 C24,61.225 24.225,61 24.5,61 C24.775,61 25,61.225 25,61.5 L25,63.5 C25,63.775 24.775,64 24.5,64" id="Fill-91" fill="#1d7ed0"/>
   </g>
  </g>
 </g>
</svg>
