<?xml version="1.0" encoding="UTF-8" standalone="no"?>
<svg width="40" height="64" viewBox="0 0 40 64" version="1.1" xmlns="http://www.w3.org/2000/svg">
 <g id="Page-1" fill="none" fill-rule="evenodd">
  <g id="Artboard-3" transform="translate(-640.000000, -240.000000)">
   <g id="Shuttle-Launch" transform="translate(640.000000, 240.000000)">
    <path d="M36.0703,63.7036 L24.2973,54.0706 L24.9293,53.2966 L36.7033,62.9296 L36.0703,63.7036 Z" id="Fill-376" fill="#f2b430"/>
    <path d="M24.9297,54.7036 L24.2967,53.9296 L36.0707,44.2966 L36.7027,45.0706 L24.9297,54.7036 Z" id="Fill-377" fill="#f2b430"/>
    <path d="M36.0703,45.7036 L24.2973,36.0706 L24.9293,35.2966 L36.7033,44.9296 L36.0703,45.7036 Z" id="Fill-378" fill="#f2b430"/>
    <path d="M24.9297,36.7036 L24.2967,35.9296 L36.0707,26.2966 L36.7027,27.0706 L24.9297,36.7036 Z" id="Fill-379" fill="#f2b430"/>
    <path d="M36.0703,27.7036 L24.2973,18.0706 L24.9293,17.2966 L36.7033,26.9296 L36.0703,27.7036 Z" id="Fill-380" fill="#f2b430"/>
    <path d="M24.9297,18.7036 L24.2967,17.9296 L36.0707,8.2966 L36.7027,9.0706 L24.9297,18.7036 Z" id="Fill-381" fill="#f2b430"/>
    <path d="M25,22 L15.5,22 L15,21 L25,21 L25,22 Z" id="Fill-384" fill="#f2b430"/>
    <path d="M16,47 L25,47 L25,46 L16,46 L16,47 Z" id="Fill-385" fill="#f2b430"/>
    <path d="M28,6 L36,6 L36,0 L28,0 L28,6 Z M29,5 L35,5 L35,1 L29,1 L29,5 Z" id="Fill-374" fill="#f2b430"/>
    <path d="M24,64 L40,64 L40,5 L24,5 L24,64 Z M25,63 L39,63 L39,6 L25,6 L25,63 Z" id="Fill-370" fill="#1d7ed0"/>
    <path d="M15,60 L7,60 L7,62 C7,63.105 7.895,64 9,64 L13,64 C14.105,64 15,63.105 15,62 L15,60 Z M14,61 L14,62 C14,62.551 13.551,63 13,63 L9,63 C8.449,63 8,62.551 8,62 L8,61 L14,61 L14,61 Z" id="Fill-372" fill="#f2b430"/>
    <path d="M14,14 L8,14 L5,26 L5,61 L17,61 L17,26 L14,14 Z M13.219,15 L16,26.123 L16,60 L6,60 L6,26.123 L8.781,15 L13.219,15 Z" id="Fill-373" fill="#1d7ed0"/>
    <path d="M36,63 L37,63 L37,8 L36,8 L36,63 Z" id="Fill-375" fill="#1d7ed0"/>
    <path d="M25,9 L37,9 L37,8 L25,8 L25,9 Z" id="Fill-382" fill="#1d7ed0"/>
    <path d="M5,27 L17,27 L17,26 L5,26 L5,27 Z" id="Fill-383" fill="#1d7ed0"/>
    <path d="M6,51 L0.213,59.386 C-0.298,60.043 0.17,61 1.002,61 L6,61 L6,51 Z M5,54.21 L5,60 L1.002,60 L1.019,59.978 L1.036,59.954 L5,54.21 L5,54.21 Z" id="Fill-386" fill="#1d7ed0"/>
    <path d="M16,51 L16,61 L20.998,61 C21.83,61 22.298,60.043 21.787,59.386 L16,51 Z M17,54.21 L20.964,59.954 L20.981,59.978 L20.998,60 L17,60 L17,54.21 L17,54.21 Z" id="Fill-387" fill="#1d7ed0"/>
    <path d="M12,35 C12,35.552 11.552,36 11,36 C10.448,36 10,35.552 10,35 C10,34.448 10.448,34 11,34 C11.552,34 12,34.448 12,35" id="Fill-388" fill="#f2b430"/>
    <path d="M12,41 C12,41.552 11.552,42 11,42 C10.448,42 10,41.552 10,41 C10,40.448 10.448,40 11,40 C11.552,40 12,40.448 12,41" id="Fill-389" fill="#f2b430"/>
    <path d="M11,52 L11,52 C10.45,52 10,51.55 10,51 L10,47 C10,46.45 10.45,46 11,46 C11.55,46 12,46.45 12,47 L12,51 C12,51.55 11.55,52 11,52" id="Fill-390" fill="#f2b430"/>
    <path d="M12,8 L10,8 L10,1 C10,0.45 10.45,0 11,0 C11.55,0 12,0.45 12,1 L12,8 Z" id="Fill-391" fill="#f2b430"/>
    <path d="M11,7 C9.343,7 8,8.343 8,10 L8,15 L14,15 L14,10 C14,8.343 12.657,7 11,7 M11,8 C12.103,8 13,8.897 13,10 L13,14 L9,14 L9,10 C9,8.897 9.897,8 11,8" id="Fill-371" fill="#1d7ed0"/>
   </g>
  </g>
 </g>
</svg>
