<?xml version="1.0" encoding="UTF-8" standalone="no"?>
<svg width="62" height="64" viewBox="0 0 62 64" version="1.1" xmlns="http://www.w3.org/2000/svg" xmlns:xlink="http://www.w3.org/1999/xlink">
 <defs>
  <path id="path-1" d="M0,14 C0,21.732 6.268,28 14,28 C21.732,28 28,21.732 28,14 C28,13.58 27.973,13.167 27.937,12.757 C27.656,12.907 27.341,13 27,13 C26.983,13 26.966,12.995 26.949,12.995 C26.975,13.328 27,13.661 27,14 C27,21.168 21.168,27 14,27 C6.832,27 1,21.168 1,14 C1,6.832 6.832,1 14,1 C19.484,1 24.176,4.419 26.082,9.233 C26.358,9.089 26.667,9 27,9 C27.023,9 27.044,9.006 27.067,9.007 C25.054,3.744 19.97,0 14,0 C6.268,0 0,6.268 0,14 L0,14 Z"/>
  <path id="path-3" d="M20.826,0.032 C20.931,0.337 21,0.659 21,1 C21,1.017 20.995,1.034 20.995,1.051 C21.33,1.035 21.661,1 22,1 C33.579,1 43,10.421 43,22 C43,33.579 33.579,43 22,43 C10.421,43 1,33.579 1,22 C1,12.792 6.965,4.968 15.228,2.142 C15.1,1.831 15.031,1.492 15.014,1.139 C6.29,4.06 0,12.293 0,22 C0,34.15 9.85,44 22,44 C34.15,44 44,34.15 44,22 C44,9.85 34.15,0 22,0 C21.606,0 21.215,0.011 20.826,0.032 L20.826,0.032 Z"/>
  <path d="M0,6 C0,9.314 2.686,12 6,12 C9.314,12 12,9.314 12,6 C12,2.686 9.314,0 6,0 C2.686,0 0,2.686 0,6 L0,6 Z M1,6 C1,3.243 3.243,1 6,1 C8.757,1 11,3.243 11,6 C11,8.757 8.757,11 6,11 C3.243,11 1,8.757 1,6 L1,6 Z" id="path-5"/>
  <path d="M0,2 C0,3.105 0.895,4 2,4 C3.105,4 4,3.105 4,2 C4,0.895 3.105,0 2,0 C0.895,0 0,0.895 0,2 L0,2 Z M1,2 C1,1.449 1.449,1 2,1 C2.551,1 3,1.449 3,2 C3,2.551 2.551,3 2,3 C1.449,3 1,2.551 1,2 L1,2 Z" id="path-7"/>
  <path d="M0,3 C0,4.657 1.343,6 3,6 C4.657,6 6,4.657 6,3 C6,1.343 4.657,0 3,0 C1.343,0 0,1.343 0,3 L0,3 Z M1,3 C1,1.897 1.897,1 3,1 C4.103,1 5,1.897 5,3 C5,4.103 4.103,5 3,5 C1.897,5 1,4.103 1,3 L1,3 Z" id="path-9"/>
  <path d="M0,4 C0,6.209 1.791,8 4,8 C6.209,8 8,6.209 8,4 C8,1.791 6.209,0 4,0 C1.791,0 0,1.791 0,4 L0,4 Z M1,4 C1,2.346 2.346,1 4,1 C5.654,1 7,2.346 7,4 C7,5.654 5.654,7 4,7 C2.346,7 1,5.654 1,4 L1,4 Z" id="path-11"/>
  <path id="path-13" d="M0,1 C0,1.552 0.448,2 1,2 C1.552,2 2,1.552 2,1 C2,0.448 1.552,0 1,0 C0.448,0 0,0.448 0,1 L0,1 Z"/>
  <path id="path-15" d="M0,1 C0,1.552 0.448,2 1,2 C1.552,2 2,1.552 2,1 C2,0.448 1.552,0 1,0 C0.448,0 0,0.448 0,1 L0,1 Z"/>
  <path id="path-17" d="M0,1 C0,1.552 0.448,2 1,2 C1.552,2 2,1.552 2,1 C2,0.448 1.552,0 1,0 C0.448,0 0,0.448 0,1 L0,1 Z"/>
  <path id="path-19" d="M0,1 C0,1.552 0.448,2 1,2 C1.552,2 2,1.552 2,1 C2,0.448 1.552,0 1,0 C0.448,0 0,0.448 0,1 L0,1 Z"/>
  <mask id="mask-2" fill="#ffffff">
   <use xlink:href="#path-1"/>
  </mask>
  <mask id="mask-4" fill="#ffffff">
   <use xlink:href="#path-3"/>
  </mask>
  <mask id="mask-6" fill="#ffffff">
   <use xlink:href="#path-5"/>
  </mask>
  <mask id="mask-8" fill="#ffffff">
   <use xlink:href="#path-7"/>
  </mask>
  <mask id="mask-10" fill="#ffffff">
   <use xlink:href="#path-9"/>
  </mask>
  <mask id="mask-12" fill="#ffffff">
   <use xlink:href="#path-11"/>
  </mask>
  <mask id="mask-14" fill="#ffffff">
   <use xlink:href="#path-13"/>
  </mask>
  <mask id="mask-16" fill="#ffffff">
   <use xlink:href="#path-15"/>
  </mask>
  <mask id="mask-18" fill="#ffffff">
   <use xlink:href="#path-17"/>
  </mask>
  <mask id="mask-20" fill="#ffffff">
   <use xlink:href="#path-19"/>
  </mask>
 </defs>
 <g id="Page-1" fill="none" fill-rule="evenodd">
  <g id="Artboard-3" transform="translate(-317.000000, -344.000000)">
   <g id="Solar-System" transform="translate(317.000000, 344.000000)">
    <g id="Group-3" transform="translate(17.000000, 18.000000)">
     <path d="M-5,33 L33,33 L33,-5 L-5,-5 L-5,33 Z" id="Fill-1" fill="#2b7bbf" mask="url(#mask-2)"/>
    </g>
    <g id="Group-6" transform="translate(9.000000, 10.000000)">
     <path d="M-5,49 L49,49 L49,-5 L-5,-5 L-5,49 Z" id="Fill-4" fill="#2b7bbf" mask="url(#mask-4)"/>
    </g>
    <g id="Group-9" transform="translate(25.000000, 26.000000)">
     <path d="M-5,17 L17,17 L17,-5 L-5,-5 L-5,17 Z" id="Fill-7" fill="#f0b32f" mask="url(#mask-6)"/>
    </g>
    <g id="Group-12" transform="translate(42.000000, 27.000000)">
     <path d="M-5,9 L9,9 L9,-5 L-5,-5 L-5,9 Z" id="Fill-10" fill="#f0b32f" mask="url(#mask-8)"/>
    </g>
    <g id="Group-15" transform="translate(24.000000, 8.000000)">
     <path d="M-5,11 L11,11 L11,-5 L-5,-5 L-5,11 Z" id="Fill-13" fill="#f0b32f" mask="url(#mask-10)"/>
    </g>
    <g id="Group-18" transform="translate(16.000000, 56.000000)">
     <path d="M-5,13 L13,13 L13,-5 L-5,-5 L-5,13 Z" id="Fill-16" fill="#f0b32f" mask="url(#mask-12)"/>
    </g>
    <g id="Group-21" transform="translate(54.000000, 7.000000)">
     <path d="M-5,7 L7,7 L7,-5 L-5,-5 L-5,7 Z" id="Fill-19" fill="#f0b32f" mask="url(#mask-14)"/>
    </g>
    <g id="Group-24" transform="translate(8.000000, 19.000000)">
     <path d="M-5,7 L7,7 L7,-5 L-5,-5 L-5,7 Z" id="Fill-22" fill="#f0b32f" mask="url(#mask-16)"/>
    </g>
    <g id="Group-27" transform="translate(53.000000, 55.000000)">
     <path d="M-5,7 L7,7 L7,-5 L-5,-5 L-5,7 Z" id="Fill-25" fill="#f0b32f" mask="url(#mask-18)"/>
    </g>
    <g id="Group-30" transform="translate(11.000000, 0.000000)">
     <path d="M-5,7 L7,7 L7,-5 L-5,-5 L-5,7 Z" id="Fill-28" fill="#f0b32f" mask="url(#mask-20)"/>
    </g>
    <path d="M31,1 C13.879,1 0,14.879 0,32 C0,43.714 6.499,53.907 16.086,59.179 C16.157,58.837 16.285,58.52 16.438,58.216 C7.239,53.086 1,43.26 1,32 C1,15.458 14.458,2 31,2 C47.542,2 61,15.458 61,32 C61,48.542 47.542,62 31,62 C28.525,62 26.122,61.693 23.82,61.125 C23.722,61.457 23.588,61.771 23.412,62.061 C25.841,62.672 28.382,63 31,63 C48.121,63 62,49.121 62,32 C62,14.879 48.121,1 31,1" id="Fill-31" fill="#2b7abf"/>
   </g>
  </g>
 </g>
</svg>
