<?xml version="1.0" encoding="UTF-8" standalone="no"?>
<svg width="64" height="42" viewBox="0 0 64 42" version="1.1" xmlns="http://www.w3.org/2000/svg">
 <g id="Page-1" fill="none" fill-rule="evenodd">
  <g id="Artboard-3" transform="translate(-212.000000, -355.000000)">
   <g id="Sputnik" transform="translate(212.000000, 355.000000)">
    <path d="M12,30.9995 C11.915,30.9995 11.829,30.9785 11.75,30.9325 C11.511,30.7945 11.43,30.4885 11.567,30.2495 C11.586,30.2165 13.5,26.8125 13.5,19.9995 C13.5,13.3015 11.583,9.7785 11.563,9.7435 C11.429,9.5025 11.516,9.1985 11.756,9.0635 C11.997,8.9285 12.3,9.0145 12.436,9.2555 C12.521,9.4055 14.5,13.0145 14.5,19.9995 C14.5,27.1105 12.517,30.6055 12.432,30.7505 C12.339,30.9105 12.172,30.9995 12,30.9995" id="Fill-46" fill="#f2b430"/>
    <path d="M11,9 C4.925,9 0,13.925 0,20 C0,26.075 4.925,31 11,31 C17.075,31 22,26.075 22,20 C22,13.925 17.075,9 11,9 M11,10 C16.514,10 21,14.486 21,20 C21,25.514 16.514,30 11,30 C5.486,30 1,25.514 1,20 C1,14.486 5.486,10 11,10" id="Fill-41" fill="#1d7ed0"/>
    <path d="M10.9995,10 C10.7605,10 10.5485,9.828 10.5075,9.584 C10.4605,9.312 10.6435,9.054 10.9165,9.007 L51.9165,2.007 C52.1905,1.96 52.4465,2.144 52.4925,2.416 C52.5395,2.688 52.3565,2.946 52.0835,2.993 L11.0835,9.993 C11.0555,9.998 11.0275,10 10.9995,10" id="Fill-42" fill="#1d7ed0"/>
    <path d="M58.0005,41 C57.9655,41 57.9315,40.997 57.8965,40.989 L10.8965,30.989 C10.6255,30.932 10.4535,30.666 10.5105,30.396 C10.5685,30.125 10.8325,29.955 11.1045,30.011 L58.1045,40.011 C58.3745,40.068 58.5465,40.334 58.4895,40.604 C58.4385,40.839 58.2315,41 58.0005,41" id="Fill-43" fill="#1d7ed0"/>
    <path d="M63.5005,26.5 C63.4875,26.5 63.4755,26.5 63.4615,26.499 L10.9615,22.499 C10.6865,22.478 10.4805,22.237 10.5015,21.962 C10.5225,21.687 10.7515,21.48 11.0385,21.501 L63.5385,25.501 C63.8135,25.522 64.0195,25.763 63.9985,26.038 C63.9785,26.3 63.7595,26.5 63.5005,26.5" id="Fill-44" fill="#1d7ed0"/>
    <path d="M20.9995,16.5 C20.7435,16.5 20.5255,16.305 20.5015,16.045 C20.4775,15.77 20.6795,15.527 20.9545,15.502 L42.9545,13.502 C43.2385,13.477 43.4725,13.68 43.4985,13.955 C43.5225,14.23 43.3205,14.473 43.0455,14.498 L21.0455,16.498 C21.0295,16.5 21.0145,16.5 20.9995,16.5" id="Fill-45" fill="#1d7ed0"/>
    <path d="M3,19.5 C2.724,19.5 2.5,19.276 2.5,19 C2.5,14.794 5.794,11.5 10,11.5 C10.276,11.5 10.5,11.724 10.5,12 C10.5,12.276 10.276,12.5 10,12.5 C6.355,12.5 3.5,15.355 3.5,19 C3.5,19.276 3.276,19.5 3,19.5" id="Fill-166" fill="#1d7ed0"/>
    <path d="M14.7033,1.5528 L15.8583,1.8138 C16.0473,1.8658 16.0473,2.1348 15.8583,2.1868 L14.7033,2.4478 C14.6063,2.4708 14.5303,2.5388 14.5033,2.6248 L14.1863,3.8578 C14.1343,4.0478 13.8653,4.0478 13.8133,3.8578 L13.4963,2.6248 C13.4693,2.5388 13.3943,2.4708 13.2963,2.4478 L12.1423,2.1868 C11.9523,2.1348 11.9523,1.8658 12.1423,1.8138 L13.2963,1.5528 C13.3933,1.5288 13.4693,1.4618 13.4963,1.3758 L13.8133,0.1418 C13.8653,-0.0472 14.1343,-0.0472 14.1863,0.1418 L14.5033,1.3758 C14.5303,1.4618 14.6063,1.5288 14.7033,1.5528" id="Fill-188" fill="#f2b430"/>
    <path d="M29.7033,39.5528 L30.8583,39.8138 C31.0473,39.8658 31.0473,40.1348 30.8583,40.1868 L29.7033,40.4478 C29.6063,40.4708 29.5303,40.5388 29.5033,40.6248 L29.1863,41.8578 C29.1343,42.0478 28.8653,42.0478 28.8133,41.8578 L28.4963,40.6248 C28.4693,40.5388 28.3943,40.4708 28.2963,40.4478 L27.1423,40.1868 C26.9523,40.1348 26.9523,39.8658 27.1423,39.8138 L28.2963,39.5528 C28.3933,39.5288 28.4693,39.4618 28.4963,39.3758 L28.8133,38.1418 C28.8653,37.9528 29.1343,37.9528 29.1863,38.1418 L29.5033,39.3758 C29.5303,39.4618 29.6063,39.5288 29.7033,39.5528" id="Fill-189" fill="#f2b430"/>
   </g>
  </g>
 </g>
</svg>
