<?xml version="1.0" encoding="UTF-8" standalone="no"?>
<svg width="64" height="64" viewBox="0 0 64 64" version="1.1" xmlns="http://www.w3.org/2000/svg">
 <g id="Page-1" fill="none" fill-rule="evenodd">
  <g id="Artboard-3" transform="translate(-212.000000, -552.000000)">
   <g id="UFO-1" transform="translate(212.000000, 552.000000)">
    <path d="M32,8 C14.327,8 0,13.373 0,20 C0,26.627 14.327,32 32,32 C49.673,32 64,26.627 64,20 C64,13.373 49.673,8 32,8 M32,9 C50.543,9 63,14.688 63,20 C63,25.312 50.543,31 32,31 C13.457,31 1,25.312 1,20 C1,14.688 13.457,9 32,9" id="Fill-97" fill="#1d7ed0"/>
    <path d="M32,1 C38.449,1 44.07,4.609 46.951,9.913 L48.135,10.012 C45.192,4.079 39.072,0 32,0 C24.901,0 18.761,4.11 15.831,10.081 L17.017,9.973 C19.888,4.636 25.527,1 32,1" id="Fill-98" fill="#f2b430"/>
    <path d="M32,56 C23.716,56 15,57.791 15,60 C15,62.209 23.716,64 32,64 C40.284,64 49,62.209 49,60 C49,57.791 40.284,56 32,56 M32,57 C40.995,57 47.474,58.948 47.989,60 C47.474,61.052 40.995,63 32,63 C23.005,63 16.526,61.052 16.011,60 C16.526,58.948 23.005,57 32,57" id="Fill-100" fill="#f2b430"/>
    <path d="M15.9858,60.1182 L15.0138,59.8822 L24.0138,22.8822 L24.9858,23.1182 L15.9858,60.1182 Z" id="Fill-101" fill="#f2b430"/>
    <path d="M48.0142,60.1182 L39.0142,23.1182 L39.9862,22.8822 L48.9862,59.8822 L48.0142,60.1182 Z" id="Fill-102" fill="#f2b430"/>
    <path d="M40,23 C40,24.657 36.418,26 32,26 C27.582,26 24,24.657 24,23 C24,21.343 27.582,20 32,20 C36.418,20 40,21.343 40,23" id="Fill-99" fill="#1d7ed0"/>
   </g>
  </g>
 </g>
</svg>
